<svg version="1.2" xmlns="http://www.w3.org/2000/svg" viewBox="0 0 61 61" width="61" height="61"><style>.a{fill:#fff}.b{fill:#0ceb8f}</style><path class="a" d="m44.9 54.3c-9.9 6-22.9 5-31.9-2.3-9.1-7.4-12.6-20.3-8.4-31.3 4.1-10.9 14.4-17.7 26-18 13.1 0.3 24.8 9.4 27.2 22.5 2.2 11.3-3 23.1-12.9 29.1z"/><path class="a" d="m55.7 25.7c-2.7-12.8-15.1-22.5-28.5-20.5-13.2 1.9-23.1 13.6-22.1 27.1 1.1 14.7 14.8 25.6 29.4 23.4 14.3-2.1 23.5-16 21.2-30-0.4-2.7 3.8-3.9 4.2-1.1 2.4 14.2-4.9 28.5-18.6 33.8-12.1 4.7-26.4 0.7-34.3-9.5-7.6-9.8-8.5-23.7-1.9-34.2 6.5-10.2 19-15.9 30.9-13.6 11.9 2.3 21.4 11.6 23.9 23.5 0.6 2.7-3.6 3.9-4.2 1.1z"/><path fill-rule="evenodd" class="b" d="m56.2 30.5c0 14.1-11.5 25.6-25.6 25.6-14.2 0-25.6-11.5-25.6-25.6 0-14.2 11.4-25.6 25.6-25.6 14.1 0 25.6 11.4 25.6 25.6zm-10.7-10.5q-1-0.8-1.9-1.5c-1.2-1-1.7-0.9-2.6 0.2q-5.8 7.2-11.5 14.3-1.5 1.8-3 3.7-1.5-1.3-3-2.6-2-1.6-4-3.2c-0.7-0.6-1.3-0.6-1.9 0.2q-0.1 0-0.2 0.1-0.8 1.1-1.6 2.2c-0.7 0.8-0.6 1.4 0.2 2q2.4 2.1 4.8 4.1 2.5 2 5 4.1c1 0.8 1.5 0.7 2.3-0.2q0 0 0 0 3.4-4 6.7-8 5.5-6.5 10.9-12.9c0.9-1.1 0.9-1.7-0.2-2.5z"/></svg>