<svg version="1.2" xmlns="http://www.w3.org/2000/svg" viewBox="0 0 28 230" width="28" height="230"><style>.a{fill:#a8eff4}</style><path fill-rule="evenodd" class="a" d="m27.4 176.3q0 0.1 0 0.2 0 0.2 0 0.4-0.1 0.2-0.1 0.5c-0.2 3.1-1.4 5.8-3.3 8q-0.2 0.2-0.4 0.4-0.2 0.2-0.3 0.4-0.4 0.3-0.8 0.6-0.2 0.2-0.4 0.4-0.2 0.1-0.4 0.3c-2.1 1.5-4.7 2.4-7.4 2.5q-0.2 0-0.4 0 0 0 0 0 0 0 0 0 0 0 0 0-0.1 0-0.1 0-0.7 0-1.4 0c-5.7-0.6-9.9-4.5-11.5-9.4q-0.3-1.1-0.5-2.3 0-0.1 0-0.3-0.1-0.3-0.1-0.7 0-0.3 0-0.5 0-0.2 0-0.3c0-7.5 6.1-13.6 13.5-13.6 5.1 0 9.5 2.8 11.9 7 0.9 1.6 1.4 3.4 1.6 5.2q0 0 0 0.1 0.1 0.5 0.1 1.1zm-21.9 0.2q0 0.3 0 0.6 0 0.2 0.1 0.4 0 0.2 0 0.4 0.1 0.2 0.1 0.4 0 0.2 0.1 0.4 0 0.2 0.1 0.4 0.1 0.2 0.2 0.3 0 0.2 0.1 0.4 0.1 0.2 0.2 0.4 0.1 0.2 0.2 0.3 0.1 0.2 0.2 0.4 0.1 0.1 0.2 0.3 0.1 0.2 0.2 0.3 0.1 0.2 0.3 0.3 0.1 0.2 0.2 0.3 0.2 0.2 0.3 0.3 0.1 0.2 0.3 0.3 0.1 0.1 0.3 0.2 0.1 0.2 0.3 0.3 0.2 0.1 0.3 0.2 0.2 0.1 0.4 0.2 0.1 0.1 0.3 0.2 0.2 0.1 0.4 0.2 0.2 0.1 0.3 0.2 0.2 0.1 0.4 0.1 0.2 0.1 0.4 0.1 0.2 0.1 0.4 0.2 0.2 0 0.4 0 0.2 0.1 0.5 0.1 0.1 0.1 0.3 0.1 0.4 0 0.8 0 0.3 0 0.5 0 0.2 0 0.4 0 0.2-0.1 0.4-0.1 0.2 0 0.5-0.1 0.1 0 0.3-0.1 0.2 0 0.4-0.1 0.2 0 0.4-0.1 0.2-0.1 0.4-0.2 0.2 0 0.3-0.1 0.2-0.1 0.4-0.2 0.2-0.1 0.3-0.2 0.2-0.1 0.4-0.2 0.2-0.1 0.3-0.3 0.2-0.1 0.3-0.2 0.2-0.1 0.3-0.3 0.2-0.1 0.3-0.3 0.2-0.1 0.3-0.2 0.1-0.2 0.3-0.3 0.1-0.2 0.2-0.4 0.1-0.1 0.2-0.3 0.2-0.2 0.3-0.3 0.1-0.2 0.2-0.4 0.1-0.2 0.1-0.4 0.1-0.1 0.2-0.3 0.1-0.2 0.2-0.4 0-0.2 0.1-0.4 0.1-0.2 0.1-0.4 0.1-0.2 0.1-0.3 0-0.3 0.1-0.6 0-0.1 0-0.3 0.1-0.4 0.1-0.8 0-0.5-0.1-1 0-0.1 0-0.3-0.1-0.3-0.2-0.6 0-0.2 0-0.3-0.1-0.3-0.2-0.6-0.1-0.1-0.1-0.3-0.2-0.3-0.3-0.6c-1.4-2.8-4.2-4.6-7.5-4.6-4.6 0-8.3 3.7-8.3 8.3z"/><path fill-rule="evenodd" class="a" d="m27.4 136.4q0 0.1 0 0.1 0 0.2 0 0.4-0.1 0.3-0.1 0.6c-0.2 3-1.4 5.8-3.3 8q-0.2 0.2-0.4 0.4-0.2 0.2-0.4 0.3-0.3 0.4-0.7 0.7-0.2 0.2-0.4 0.3-0.2 0.2-0.4 0.3c-2.1 1.6-4.7 2.5-7.5 2.6q-0.1 0-0.3 0 0 0-0.1 0c-7.4 0-13.5-6.1-13.5-13.6 0-7.4 6.1-13.5 13.5-13.5q0.2 0 0.4 0 0.3 0 0.5 0 1.2 0.1 2.2 0.4 0.4 0.1 0.8 0.2 0.1 0 0.2 0c3 0.9 5.3 2.7 7.1 5.3q0 0.1 0.1 0.1 0.3 0.5 0.6 0.9c0.9 1.7 1.4 3.4 1.6 5.2q0 0.1 0 0.1 0.1 0.6 0.1 1.2zm-13.6 8.5q0.2 0 0.4 0 0.3-0.1 0.5-0.1 0.2 0 0.3 0 0.3-0.1 0.6-0.1 0.1 0 0.3-0.1 0.2 0 0.4-0.1 0.2-0.1 0.4-0.1 0.2-0.1 0.4-0.2 0.2-0.1 0.3-0.2 0.2-0.1 0.4-0.2 0.2 0 0.3-0.1 0.2-0.2 0.4-0.3 0.2-0.1 0.3-0.2 0.2-0.1 0.3-0.3 0.2-0.1 0.3-0.2 0.2-0.2 0.3-0.3 0.2-0.2 0.3-0.3 0.1-0.1 0.3-0.3 0.1-0.2 0.2-0.4 0.1-0.1 0.2-0.2 0.2-0.2 0.3-0.4 0.1-0.2 0.2-0.3 0.1-0.2 0.2-0.5 0-0.1 0.1-0.2 0.1-0.3 0.2-0.5 0-0.2 0.1-0.3 0.1-0.3 0.1-0.5 0.1-0.2 0.1-0.3 0-0.3 0.1-0.5 0-0.2 0-0.3 0.1-0.4 0.1-0.9 0-0.4-0.1-0.9 0-0.2 0-0.3-0.1-0.3-0.2-0.6 0-0.2 0-0.4-0.1-0.3-0.2-0.6-0.1-0.1-0.1-0.2-0.2-0.4-0.3-0.7-0.1-0.1-0.1-0.2-0.1-0.1-0.2-0.2-0.1-0.3-0.3-0.5 0 0 0-0.1c-1.1-1.5-2.5-2.6-4.3-3.2q-0.1 0-0.2 0-0.2-0.1-0.4-0.2-0.3 0-0.5-0.1-0.2 0-0.4 0-0.2 0-0.5-0.1-0.3 0-0.6 0c-4.6 0-8.3 3.7-8.3 8.3 0 4.6 3.7 8.4 8.3 8.4z"/><path fill-rule="evenodd" class="a" d="m24 225.4q-0.2 0.2-0.4 0.4-0.2 0.1-0.3 0.3-0.4 0.4-0.8 0.7-0.2 0.2-0.4 0.3-0.2 0.2-0.4 0.3c-2.1 1.5-4.7 2.5-7.4 2.6q-0.2 0-0.4 0 0 0 0 0 0 0 0 0 0 0 0 0-0.1 0-0.1 0-0.7 0-1.4-0.1c-5.7-0.6-9.9-4.5-11.5-9.4q-0.3-1.1-0.5-2.3 0-0.1 0-0.2-0.1-0.4-0.1-0.8 0-0.2 0-0.5 0-0.1 0-0.3c0-7.4 6.1-13.5 13.5-13.5 5.1 0 9.5 2.8 11.9 6.9 0.9 1.7 1.4 3.4 1.6 5.2q0 0.1 0 0.1 0.1 0.6 0.1 1.2 0 0.1 0 0.1 0 0.2 0 0.4-0.1 0.3-0.1 0.6c-0.2 3-1.4 5.8-3.3 8zm-18.5-9q0 0.3 0 0.6 0 0.2 0.1 0.4 0 0.2 0 0.4 0.1 0.2 0.1 0.4 0 0.2 0.1 0.4 0 0.2 0.1 0.4 0.1 0.2 0.2 0.4 0 0.2 0.1 0.4 0.1 0.1 0.2 0.3 0.1 0.2 0.2 0.4 0.1 0.1 0.2 0.3 0.1 0.2 0.2 0.3 0.1 0.2 0.2 0.4 0.1 0.1 0.3 0.3 0.1 0.1 0.2 0.3 0.2 0.1 0.3 0.3 0.1 0.1 0.3 0.2 0.1 0.2 0.3 0.3 0.1 0.1 0.3 0.2 0.2 0.2 0.3 0.3 0.2 0.1 0.4 0.2 0.1 0.1 0.3 0.2 0.2 0.1 0.4 0.2 0.2 0 0.3 0.1 0.2 0.1 0.4 0.2 0.2 0 0.4 0.1 0.2 0.1 0.4 0.1 0.2 0.1 0.4 0.1 0.2 0 0.5 0.1 0.1 0 0.3 0 0.4 0.1 0.8 0.1 0.3 0 0.5-0.1 0.2 0 0.4 0 0.2 0 0.4-0.1 0.2 0 0.5 0 0.1-0.1 0.3-0.1 0.2-0.1 0.4-0.1 0.2-0.1 0.4-0.2 0.2 0 0.4-0.1 0.2-0.1 0.3-0.2 0.2-0.1 0.4-0.2 0.2-0.1 0.3-0.2 0.2-0.1 0.4-0.2 0.2-0.1 0.3-0.2 0.2-0.1 0.3-0.3 0.2-0.1 0.3-0.2 0.2-0.2 0.3-0.3 0.2-0.1 0.3-0.3 0.1-0.1 0.3-0.3 0.1-0.2 0.2-0.3 0.1-0.2 0.2-0.3 0.2-0.2 0.3-0.4 0.1-0.2 0.2-0.3 0.1-0.2 0.1-0.4 0.1-0.2 0.2-0.4 0.1-0.2 0.2-0.4 0-0.1 0.1-0.3 0.1-0.2 0.1-0.5 0.1-0.1 0.1-0.3 0-0.3 0.1-0.5 0-0.2 0-0.3 0.1-0.4 0.1-0.9 0-0.5-0.1-0.9 0-0.2 0-0.3-0.1-0.3-0.2-0.7 0-0.1 0-0.3-0.1-0.3-0.2-0.6-0.1-0.1-0.1-0.2-0.2-0.4-0.3-0.7c-1.4-2.7-4.2-4.6-7.5-4.6-4.6 0-8.3 3.7-8.3 8.3z"/><path fill-rule="evenodd" class="a" d="m27.4 95q0 0 0 0.1 0 0.2 0 0.4-0.1 0.3-0.1 0.6c-0.2 3-1.4 5.8-3.3 7.9q-0.2 0.3-0.4 0.4-0.2 0.2-0.3 0.4-0.4 0.4-0.8 0.7-0.2 0.1-0.4 0.3-0.2 0.2-0.4 0.3c-2.1 1.5-4.7 2.5-7.4 2.5q-0.2 0.1-0.4 0.1 0 0-0.1 0c-7.4 0-13.5-6.1-13.5-13.6q0 0 0 0 0-0.1 0-0.1c0-4.2 2-7.9 4.9-10.4 2.3-1.9 5.2-3 8.4-3q0.1 0 0.1 0 0.1 0 0.1 0 0.2 0 0.5 0 0.2 0 0.5 0 0.4 0 0.7 0.1c4.2 0.5 7.3 2.6 9.5 5.7q0 0.1 0.1 0.2 0.3 0.5 0.6 0.9c0.9 1.7 1.4 3.4 1.6 5.2q0 0 0 0.1 0.1 0.6 0.1 1.2zm-13.6 8.4q0.3 0 0.5 0 0.2 0 0.4 0 0.2 0 0.4-0.1 0.2 0 0.5 0 0.1-0.1 0.3-0.1 0.2-0.1 0.4-0.1 0.2-0.1 0.4-0.2 0.2 0 0.4-0.1 0.2-0.1 0.3-0.2 0.2-0.1 0.4-0.2 0.2-0.1 0.3-0.2 0.2-0.1 0.4-0.2 0.2-0.1 0.3-0.2 0.2-0.1 0.3-0.3 0.2-0.1 0.3-0.2 0.2-0.2 0.3-0.3 0.2-0.2 0.3-0.3 0.1-0.2 0.3-0.3 0.1-0.2 0.2-0.3 0.1-0.2 0.2-0.3 0.2-0.2 0.3-0.4 0.1-0.2 0.2-0.3 0.1-0.2 0.1-0.4 0.1-0.2 0.2-0.4 0.1-0.2 0.2-0.4 0-0.2 0.1-0.3 0.1-0.3 0.1-0.5 0.1-0.2 0.1-0.3 0-0.3 0.1-0.6 0-0.1 0-0.2 0.1-0.5 0.1-0.9 0-0.5-0.1-0.9 0-0.2 0-0.3-0.1-0.3-0.2-0.7 0-0.1 0-0.3-0.1-0.3-0.2-0.6-0.1-0.1-0.1-0.3-0.2-0.3-0.3-0.6-0.1-0.1-0.1-0.2-0.3-0.4-0.5-0.8-0.1-0.1-0.2-0.2-0.2-0.3-0.5-0.6-0.1-0.1-0.2-0.2-0.3-0.4-0.7-0.7 0 0 0 0-0.4-0.3-0.8-0.6-0.1-0.1-0.2-0.1-0.4-0.3-0.8-0.4-0.1-0.1-0.2-0.1-0.4-0.2-0.9-0.4-0.1 0-0.2 0-0.4-0.1-0.8-0.2-0.2 0-0.3 0-0.5-0.1-1.1-0.1c-4.6 0-8.3 3.7-8.3 8.3 0 4.6 3.7 8.3 8.3 8.3z"/><path fill-rule="evenodd" class="a" d="m25.7 47.1c1 2 1.7 4.2 1.7 6.6 0 7.4-6.1 13.5-13.6 13.5-7.4 0-13.5-6.1-13.5-13.5q0 0 0 0 0-0.1 0-0.2c0-4.1 2-7.8 4.9-10.3 2.3-1.9 5.2-3.1 8.4-3.1q0.1 0 0.1 0 0.1 0 0.1 0 0.2 0 0.5 0.1 0.2 0 0.5 0 0.4 0 0.7 0.1c4.2 0.4 7.3 2.6 9.5 5.7q0 0.1 0.1 0.2 0.3 0.4 0.6 0.9zm-3.5 6.6c0-1.4-0.4-2.7-1-3.9q-0.2-0.5-0.5-0.9-0.1-0.1-0.2-0.1-0.2-0.4-0.5-0.7-0.1-0.1-0.1-0.2-0.4-0.3-0.8-0.7 0 0 0 0-0.4-0.3-0.8-0.5-0.1-0.1-0.2-0.2-0.4-0.2-0.8-0.4 0 0-0.1-0.1-0.5-0.2-1-0.3-0.1 0-0.2-0.1-0.4-0.1-0.8-0.1-0.2-0.1-0.3-0.1-0.5 0-1.1-0.1c-4.6 0-8.3 3.8-8.3 8.4 0 4.6 3.7 8.3 8.3 8.3 4.6 0 8.4-3.7 8.4-8.3z"/><path fill-rule="evenodd" class="a" d="m1.2 18.5c-0.6-1.5-0.9-3.1-0.9-4.7 0-3.9 1.6-7.4 4.2-9.8 2.2-2.3 5.3-3.8 9.1-3.8q0.1 0 0.1 0 0.1 0 0.1 0 0.3 0 0.5 0 0.3 0 0.5 0.1 0.4 0 0.7 0c4.2 0.5 7.3 2.7 9.5 5.8q0 0.1 0.1 0.1 0.3 0.5 0.6 1c0.9 1.6 1.4 3.3 1.6 5.1q0 0.1 0 0.1 0.1 0.6 0.1 1.2 0 0.1 0 0.2 0 0.1 0 0.3-0.1 0.3-0.1 0.6c-0.2 3-1.4 5.8-3.3 8q-0.2 0.2-0.4 0.4-0.2 0.2-0.4 0.4-0.3 0.3-0.7 0.6-0.2 0.2-0.4 0.4-0.2 0.1-0.4 0.2c-2.1 1.6-4.7 2.5-7.5 2.6q-0.1 0-0.3 0 0 0-0.1 0c-5.1 0-9.5-2.8-11.8-7q-0.3-0.6-0.6-1.2 0-0.1-0.1-0.2-0.1-0.2-0.1-0.4zm12.6 3.6q0.3 0 0.5 0 0.2-0.1 0.4-0.1 0.2 0 0.4 0 0.2-0.1 0.4-0.1 0.2 0 0.4-0.1 0.2-0.1 0.4-0.1 0.2-0.1 0.4-0.2 0.2 0 0.4-0.1 0.2-0.1 0.4-0.2 0.1-0.1 0.3-0.1 0.2-0.2 0.4-0.3 0.1-0.1 0.3-0.2 0.2-0.1 0.3-0.2 0.2-0.1 0.3-0.2 0.2-0.2 0.4-0.3 0.1-0.2 0.2-0.3 0.2-0.1 0.3-0.3 0.1-0.1 0.3-0.3 0.1-0.2 0.2-0.3 0.1-0.2 0.2-0.3 0.2-0.2 0.3-0.4 0.1-0.2 0.2-0.3 0.1-0.2 0.2-0.4 0-0.2 0.1-0.3 0.1-0.3 0.2-0.5 0-0.1 0.1-0.3 0.1-0.2 0.1-0.5 0.1-0.1 0.1-0.3 0-0.3 0.1-0.5 0-0.2 0-0.3 0.1-0.4 0.1-0.8 0-0.5-0.1-1 0-0.1 0-0.3-0.1-0.3-0.2-0.6 0-0.2 0-0.3-0.1-0.3-0.2-0.6-0.1-0.2-0.1-0.3-0.2-0.3-0.3-0.7-0.1-0.1-0.1-0.1-0.3-0.5-0.5-0.9-0.1-0.1-0.2-0.2-0.2-0.3-0.5-0.6-0.1-0.1-0.2-0.2-0.3-0.4-0.7-0.7 0 0 0 0-0.4-0.3-0.8-0.6-0.1 0-0.2-0.1-0.4-0.2-0.8-0.4-0.1 0-0.2-0.1-0.4-0.2-0.9-0.3-0.1-0.1-0.2-0.1-0.4-0.1-0.8-0.2-0.2 0-0.3 0-0.5-0.1-1.1-0.1c-4.6 0-8.3 3.8-8.3 8.4q0 0.4 0 0.8 0.1 0.2 0.1 0.3 0 0.3 0.1 0.6 0 0.2 0.1 0.3 0 0.3 0.1 0.5 0.1 0.2 0.1 0.3 0.1 0.3 0.2 0.5c1.3 2.9 4.2 5 7.6 5z"/></svg>