<svg version="1.2" xmlns="http://www.w3.org/2000/svg" viewBox="0 0 26 41" width="26" height="41"><defs><linearGradient id="P" gradientUnits="userSpaceOnUse"/><linearGradient id="g1" x1="7" y1="40.8" x2="7" y2=".7" href="#P"><stop offset=".1" stop-color="#ff5f37"/><stop offset="1" stop-color="#ff762e"/></linearGradient><linearGradient id="g2" x1="7" y1="40.8" x2="7" y2=".7" href="#P"><stop offset=".1" stop-color="#ff5f37"/><stop offset="1" stop-color="#ff762e"/></linearGradient><radialGradient id="g3" cx="15.2" cy="29.9" r="15.3" href="#P"><stop offset=".1" stop-color="#ff773b"/><stop offset="1" stop-color="#ffa953"/></radialGradient><linearGradient id="g4" x1=".4" y1="34.2" x2=".4" y2="7.2" href="#P"><stop offset=".1" stop-color="#e24d35"/><stop offset="1" stop-color="#ff692b"/></linearGradient><linearGradient id="g5" x1="2.6" y1="33.9" x2="2.6" y2="7.5" href="#P"><stop offset=".1" stop-color="#ff5f37"/><stop offset="1" stop-color="#ff762e"/></linearGradient></defs><style>.a{fill:url(#g1)}.b{fill:url(#g2)}.c{fill:url(#g3)}.d{fill:#ebb12a}.e{mix-blend-mode:soft-light;fill:#f8e637}.f{fill:url(#g4)}.g{fill:url(#g5)}</style><ellipse class="a" cx="17.2" cy="20.7" rx="8.2" ry="20"/><path class="b" d="m9 0.7h8.2v40.1h-8.2z"/><ellipse class="c" cx="9" cy="20.7" rx="8.2" ry="20"/><path class="d" d="m14.2 5.3h8.3q2.2 4.4 2.6 9h-8.3q-0.8-5.6-2.6-9z"/><path class="e" d="m0.8 22.9l13.4-17.6q2.2 4.7 2.6 9l-15.3 14.4q-0.7-3.6-0.7-5.8z"/><path class="f" d="m12.9 20.7c0 6.5-1.8 11.9-4.1 13.2q-0.6 0.3-1.1 0.3c-2.9 0-5.3-6-5.3-13.5 0-7.4 2.4-13.5 5.3-13.5q0.5 0.1 1.1 0.3c2.3 1.3 4.1 6.8 4.1 13.2z"/><path class="g" d="m12.9 20.7c0 6.5-1.8 11.9-4.1 13.2-2.4-1.3-4.2-6.7-4.2-13.2 0-6.4 1.8-11.9 4.2-13.2 2.3 1.3 4.1 6.8 4.1 13.2z"/><path class="d" d="m12.3 39.1h8.2q-0.6 0.7-1.9 1.4l-8.4 0.1q1.7-0.6 2.1-1.5z"/></svg>