<svg version="1.2" xmlns="http://www.w3.org/2000/svg" viewBox="0 0 61 60" width="61" height="60"><style>.a{fill:#fff}.b{fill:#d76d72}</style><path class="a" d="m44.9 53.9c-9.9 6-22.9 5-31.9-2.3-9.1-7.4-12.6-20.3-8.4-31.3 4.1-10.9 14.4-17.7 26-18 13.1 0.3 24.8 9.4 27.2 22.5 2.2 11.3-3 23.1-12.9 29.1z"/><path class="a" d="m55.7 25.4c-2.7-12.9-15.1-22.6-28.5-20.6-13.2 2-23.1 13.6-22.1 27.1 1.1 14.7 14.8 25.6 29.4 23.4 14.3-2.1 23.5-16 21.2-29.9-0.4-2.8 3.8-4 4.2-1.2 2.4 14.2-4.9 28.5-18.6 33.8-12.1 4.7-26.4 0.7-34.3-9.5-7.6-9.8-8.5-23.7-1.9-34.2 6.5-10.2 19-15.9 30.9-13.6 11.9 2.3 21.4 11.6 23.9 23.5 0.6 2.7-3.6 3.9-4.2 1.2z"/><circle class="b" cx="30.6" cy="30.1" r="25.6"/><path class="a" d="m35.8 12.7v4.8q0 2.4-0.3 7.5-0.3 5.1-0.6 9.1l-0.3 4h-8.1q-1.2-15.3-1.2-20.6v-4.8zm-0.4 37.4h-9.7v-8.9h9.7z"/></svg>