<svg version="1.2" xmlns="http://www.w3.org/2000/svg" viewBox="0 0 351 14" width="351" height="14"><style>.a{fill:#0ceb8f}</style><path fill-rule="evenodd" class="a" d="m175.7 14.1c-3.8 0-7-3.1-7-6.9 0-3.9 3.2-7 7-7 3.8 0 7 3.1 7 7 0 3.8-3.2 6.9-7 6.9zm0-12.9c-3.3 0-6 2.7-6 6 0 3.2 2.7 5.9 6 5.9 3.3 0 6-2.7 6-5.9 0-3.3-2.7-6-6-6z"/><path fill-rule="evenodd" class="a" d="m4.1 10.9c-2 0-3.7-1.7-3.7-3.7 0-2.1 1.7-3.8 3.7-3.8 2.1 0 3.8 1.7 3.8 3.8 0 2-1.7 3.7-3.8 3.7zm0-6.5c-1.5 0-2.7 1.2-2.7 2.8 0 1.5 1.2 2.7 2.7 2.7 1.5 0 2.8-1.2 2.8-2.7 0-1.6-1.3-2.8-2.8-2.8z"/><path class="a" d="m165.3 7.7h-154.7v-1h154.7z"/><path fill-rule="evenodd" class="a" d="m343.5 7.2c0-2.1 1.7-3.8 3.7-3.8 2.1 0 3.8 1.7 3.8 3.8 0 2-1.7 3.7-3.8 3.7-2 0-3.7-1.7-3.7-3.7zm1 0c0 1.5 1.2 2.7 2.7 2.7 1.6 0 2.8-1.2 2.8-2.7 0-1.6-1.2-2.8-2.8-2.8-1.5 0-2.7 1.2-2.7 2.8z"/><path class="a" d="m186.1 6.7h154.7v1h-154.7z"/></svg>