<svg version="1.2" xmlns="http://www.w3.org/2000/svg" viewBox="0 0 185 34" width="185" height="34"><style>.a{fill:#0ceb8f}.b{fill:#d0faff}.c{fill:#211915}</style><path class="a" d="m183.3 31.9h-181.2v-30.2h181.2z"/><path fill-rule="evenodd" class="b" d="m184.8 33.4h-184.2v-33.2h184.2zm-181.2-3h178.2v-27.2h-178.2z"/><g style="opacity:.5"><path class="c" d="m18.2 27.4h-11.3v-21.1z"/></g><g style="opacity:.5"><path class="c" d="m32.6 27.4h-11.3l-11.4-21.1h11.4z"/></g><g style="opacity:.5"><path class="c" d="m47.2 27.4h-11.4l-11.4-21.1h11.4z"/></g><g style="opacity:.5"><path class="c" d="m61.7 27.4h-11.4l-11.3-21.1h11.3z"/></g><g style="opacity:.5"><path class="c" d="m76.2 27.4h-11.3l-11.4-21.1h11.4z"/></g><g style="opacity:.5"><path class="c" d="m90.8 27.4h-11.4l-11.4-21.1h11.4z"/></g><g style="opacity:.5"><path class="c" d="m105.3 27.4h-11.4l-11.3-21.1h11.3z"/></g><g style="opacity:.5"><path class="c" d="m119.8 27.4h-11.3l-11.4-21.1h11.4z"/></g><g style="opacity:.5"><path class="c" d="m134.4 27.4h-11.4l-11.3-21.1h11.3z"/></g><g style="opacity:.5"><path class="c" d="m148.9 27.4h-11.3l-11.4-21.1h11.4z"/></g></svg>