<svg version="1.2" xmlns="http://www.w3.org/2000/svg" viewBox="0 0 988 442" width="988" height="442"><defs><linearGradient id="P" gradientUnits="userSpaceOnUse"/><linearGradient id="g1" x1="911" y1="-121.5" x2="1031.1" y2="272.8" href="#P"><stop stop-color="#231d43"/><stop offset="1" stop-color="#2c1f4a"/></linearGradient><clipPath clipPathUnits="userSpaceOnUse" id="cp1"><path d="m184.56 387.53h-139.68c-12.84 0-23.36-10.52-23.36-23.36v-286.17c0-12.84 10.52-23.36 23.36-23.36h139.68l43.93-32.77h530.41l43.94 32.77h139.67c12.84 0 23.36 10.52 23.36 23.36v286.17c0 12.84-10.52 23.36-23.36 23.36h-139.67l-43.94 32.77h-530.41z"/></clipPath><linearGradient id="g2" x1="-14.4" y1="449.5" x2="-14.4" y2="-28.8" href="#P"><stop stop-color="#ff9b4f"/><stop offset=".2" stop-color="#ff575b"/><stop offset=".4" stop-color="#6b2e98"/><stop offset="1" stop-color="#232053"/></linearGradient><linearGradient id="g3" x1="-14.4" y1="449.5" x2="-14.4" y2="173.4" href="#P"><stop stop-color="#ff674a"/><stop offset=".5" stop-color="#952c87"/><stop offset="1" stop-color="#38225a"/></linearGradient><linearGradient id="g4" x1="184.6" y1="449.5" x2="184.6" y2="180" href="#P"><stop stop-color="#fff"/><stop offset="1" stop-color="#8a3e77"/></linearGradient><linearGradient id="g5" x1="908" y1="449.5" x2="908" y2="291" href="#P"><stop stop-color="#fff"/><stop offset="1" stop-color="#8a3e77"/></linearGradient><linearGradient id="g6" x1="878.9" y1="449.5" x2="878.9" y2="243.5" href="#P"><stop stop-color="#fff"/><stop offset="1" stop-color="#8a3e77"/></linearGradient><linearGradient id="g7" x1="845.2" y1="442.9" x2="845.2" y2="297.2" href="#P"><stop stop-color="#fff"/><stop offset="1" stop-color="#8a3e77"/></linearGradient><linearGradient id="g8" x1="797.7" y1="353.7" x2="797.7" y2="309.6" href="#P"><stop stop-color="#fff"/><stop offset="1" stop-color="#8a3e77"/></linearGradient><linearGradient id="g9" x1="818.3" y1="449.5" x2="818.3" y2="364.8" href="#P"><stop stop-color="#fff"/><stop offset="1" stop-color="#8a3e77"/></linearGradient><linearGradient id="g10" x1="697.4" y1="449.5" x2="697.4" y2="369.6" href="#P"><stop stop-color="#fff"/><stop offset="1" stop-color="#8a3e77"/></linearGradient><linearGradient id="g11" x1="667.2" y1="449.5" x2="667.2" y2="354.6" href="#P"><stop stop-color="#fff"/><stop offset="1" stop-color="#8a3e77"/></linearGradient><linearGradient id="g12" x1="749.9" y1="449.5" x2="749.9" y2="357" href="#P"><stop stop-color="#fff"/><stop offset="1" stop-color="#8a3e77"/></linearGradient><linearGradient id="g13" x1="506.5" y1="421.1" x2="506.5" y2="292.6" href="#P"><stop stop-color="#fff"/><stop offset="1" stop-color="#8a3e77"/></linearGradient><linearGradient id="g14" x1="532" y1="449.5" x2="532" y2="221.1" href="#P"><stop stop-color="#fff"/><stop offset="1" stop-color="#8a3e77"/></linearGradient><linearGradient id="g15" x1="302.2" y1="449.5" x2="302.2" y2="309.7" href="#P"><stop stop-color="#fff"/><stop offset="1" stop-color="#8a3e77"/></linearGradient><linearGradient id="g16" x1="223" y1="449.5" x2="223" y2="395.7" href="#P"><stop stop-color="#fff"/><stop offset="1" stop-color="#8a3e77"/></linearGradient><linearGradient id="g17" x1="280.8" y1="449.5" x2="280.8" y2="319" href="#P"><stop stop-color="#fff"/><stop offset="1" stop-color="#8a3e77"/></linearGradient><linearGradient id="g18" x1="410.1" y1="422.4" x2="410.1" y2="339.9" href="#P"><stop stop-color="#fff"/><stop offset="1" stop-color="#8a3e77"/></linearGradient><linearGradient id="g19" x1="463.8" y1="421.2" x2="463.8" y2="366.9" href="#P"><stop stop-color="#fff"/><stop offset="1" stop-color="#8a3e77"/></linearGradient><linearGradient id="g20" x1="-14.4" y1="449.5" x2="-14.4" y2="244.3" href="#P"><stop stop-color="#fff"/><stop offset="1" stop-color="#8a3e77"/></linearGradient><linearGradient id="g21" x1="81.2" y1="372" x2="81.2" y2="280.6" href="#P"><stop stop-color="#fff"/><stop offset="1" stop-color="#8a3e77"/></linearGradient><linearGradient id="g22" x1="131.5" y1="449.5" x2="131.5" y2="304.9" href="#P"><stop stop-color="#fff"/><stop offset="1" stop-color="#8a3e77"/></linearGradient><linearGradient id="g23" x1="177.3" y1="449.5" x2="177.3" y2="288.1" href="#P"><stop stop-color="#fff"/><stop offset="1" stop-color="#8a3e77"/></linearGradient><linearGradient id="g24" x1="8.1" y1="323" x2="8.1" y2="244.3" href="#P"><stop stop-color="#fff"/><stop offset="1" stop-color="#8a3e77"/></linearGradient><radialGradient id="g25" cx="727.8" cy="85.2" r="105.4" href="#P"><stop stop-color="#1f4ba8"/><stop offset="1" stop-color="#131116"/></radialGradient><radialGradient id="g26" cx="728.1" cy="85.3" r="99.1" href="#P"><stop offset=".7" stop-color="#ff3668"/><stop offset="1" stop-color="#131116"/></radialGradient><radialGradient id="g27" cx="728.4" cy="85.3" r="90.6" href="#P"><stop offset=".8" stop-color="#2896d3"/><stop offset="1" stop-color="#131116"/></radialGradient><radialGradient id="g28" cx="720.2" cy="67.8" r="94" href="#P"><stop stop-color="#6550a9"/><stop offset=".9" stop-color="#32266e"/><stop offset="1" stop-color="#6e275f"/></radialGradient><linearGradient id="g29" x1="777" y1="120.2" x2="779.6" y2="118.3" href="#P"><stop stop-color="#dad0e8"/><stop offset="1" stop-color="#8677bc"/></linearGradient><radialGradient id="g30" cx="802.4" cy="103.5" r="48.7" href="#P"><stop stop-color="#fff"/><stop offset="1" stop-color="#6983c4"/></radialGradient><radialGradient id="g31" cx="705.4" cy="49.4" r="44.5" href="#P"><stop stop-color="#d4547f"/><stop offset="1" stop-color="#131116"/></radialGradient><radialGradient id="g32" cx="705.4" cy="49.4" r="21.1" href="#P"><stop stop-color="#d4547f"/><stop offset="1" stop-color="#131116"/></radialGradient><radialGradient id="g33" cx="633.3" cy="73.5" r="45" href="#P"><stop stop-color="#972b5a"/><stop offset="1" stop-color="#131116"/></radialGradient><radialGradient id="g34" cx="633.3" cy="73.5" r="40" href="#P"><stop offset=".7" stop-color="#1f4ba8"/><stop offset="1" stop-color="#131116"/></radialGradient><radialGradient id="g35" cx="633.3" cy="73.5" r="38.3" href="#P"><stop stop-color="#972b5a"/><stop offset="0" stop-color="#e43238"/><stop offset="1" stop-color="#131116"/></radialGradient><radialGradient id="g36" cx="629.2" cy="64.3" r="43.8" href="#P"><stop stop-color="#5192ce"/><stop offset=".8" stop-color="#462e76"/><stop offset="1" stop-color="#89378a"/></radialGradient><radialGradient id="g37" cx="626.3" cy="61.5" r="18.8" href="#P"><stop stop-color="#b463b1"/><stop offset="1" stop-color="#131116"/></radialGradient><radialGradient id="g38" cx="660.5" cy="91" r="16.6" href="#P"><stop stop-color="#ff4271"/><stop offset="1" stop-color="#131116"/></radialGradient><linearGradient id="g39" x1="493.7" y1="449.5" x2="493.7" y2="379.6" href="#P"><stop stop-color="#de3c5e"/><stop offset="1" stop-color="#752452"/></linearGradient><linearGradient id="g40" x1="493.7" y1="449.5" x2="493.7" y2="386.1" href="#P"><stop stop-color="#b169b4"/><stop offset="1" stop-color="#8a3e77"/></linearGradient><linearGradient id="g41" x1="518.1" y1="419.1" x2="622.1" y2="419.1" href="#P"><stop stop-color="#b169b4"/><stop offset="1" stop-color="#8a3e77"/></linearGradient><linearGradient id="g42" x1="726.5" y1="449.5" x2="726.5" y2="350.4" href="#P"><stop stop-color="#de3c5e"/><stop offset="1" stop-color="#752452"/></linearGradient><linearGradient id="g43" x1="726.5" y1="449.5" x2="726.5" y2="353.7" href="#P"><stop stop-color="#b169b4"/><stop offset="1" stop-color="#8a3e77"/></linearGradient><linearGradient id="g44" x1="795.6" y1="449.5" x2="795.6" y2="421.1" href="#P"><stop stop-color="#b169b4"/><stop offset="1" stop-color="#8a3e77"/></linearGradient><linearGradient id="g45" x1="279.5" y1="449.5" x2="279.5" y2="395.7" href="#P"><stop stop-color="#de3c5e"/><stop offset="1" stop-color="#752452"/></linearGradient><linearGradient id="g46" x1="279.5" y1="449.5" x2="279.5" y2="405.4" href="#P"><stop stop-color="#b169b4"/><stop offset="1" stop-color="#8a3e77"/></linearGradient><linearGradient id="g47" x1="336.2" y1="403.4" x2="419.6" y2="403.4" href="#P"><stop stop-color="#b169b4"/><stop offset="1" stop-color="#8a3e77"/></linearGradient><radialGradient id="g48" cx="485.4" cy="430.5" r="460.1" href="#P"><stop stop-color="#ff4736"/><stop offset="1" stop-color="#131116"/></radialGradient><linearGradient id="g49" x1="911" y1="-121.5" x2="1031.1" y2="272.8" href="#P"><stop stop-color="#231d43"/><stop offset="1" stop-color="#2c1f4a"/></linearGradient></defs><style>.a{fill:#a8eff4}.b{fill:#406f6e}.c{fill:url(#g1)}.d{fill:#d0faff}.e{fill:#fff}.f{fill:url(#g2)}.g{mix-blend-mode:soft-light;fill:#9084af}.h{fill:url(#g3)}.i{opacity:.2;mix-blend-mode:multiply;fill:url(#g4)}.j{opacity:.2;mix-blend-mode:multiply;fill:url(#g5)}.k{opacity:.2;mix-blend-mode:multiply;fill:url(#g6)}.l{opacity:.2;mix-blend-mode:multiply;fill:url(#g7)}.m{opacity:.2;mix-blend-mode:multiply;fill:url(#g8)}.n{opacity:.2;mix-blend-mode:multiply;fill:url(#g9)}.o{opacity:.2;mix-blend-mode:multiply;fill:url(#g10)}.p{opacity:.2;mix-blend-mode:multiply;fill:url(#g11)}.q{opacity:.2;mix-blend-mode:multiply;fill:url(#g12)}.r{opacity:.2;mix-blend-mode:multiply;fill:url(#g13)}.s{opacity:.2;mix-blend-mode:multiply;fill:url(#g14)}.t{opacity:.2;mix-blend-mode:multiply;fill:url(#g15)}.u{opacity:.2;mix-blend-mode:multiply;fill:url(#g16)}.v{opacity:.2;mix-blend-mode:multiply;fill:url(#g17)}.w{opacity:.2;mix-blend-mode:multiply;fill:url(#g18)}.x{opacity:.2;mix-blend-mode:multiply;fill:url(#g19)}.y{opacity:.2;mix-blend-mode:multiply;fill:url(#g20)}.z{opacity:.2;mix-blend-mode:multiply;fill:url(#g21)}.A{opacity:.2;mix-blend-mode:multiply;fill:url(#g22)}.B{opacity:.2;mix-blend-mode:multiply;fill:url(#g23)}.C{opacity:.2;mix-blend-mode:multiply;fill:url(#g24)}.D{opacity:.5;mix-blend-mode:screen;fill:url(#g25)}.E{opacity:.5;mix-blend-mode:screen;fill:url(#g26)}.F{opacity:.5;mix-blend-mode:screen;fill:url(#g27)}.G{fill:url(#g28)}.H{opacity:.2;mix-blend-mode:multiply;fill:#441853}.I{opacity:.3;mix-blend-mode:multiply;fill:url(#g29)}.J{mix-blend-mode:soft-light;fill:url(#g30)}.K{opacity:.5;mix-blend-mode:screen;fill:url(#g31)}.L{opacity:.5;mix-blend-mode:screen;fill:url(#g32)}.M{opacity:.5;mix-blend-mode:screen;fill:url(#g33)}.N{opacity:.5;mix-blend-mode:screen;fill:url(#g34)}.O{opacity:.5;mix-blend-mode:screen;fill:url(#g35)}.P{fill:url(#g36)}.Q{opacity:.2;mix-blend-mode:multiply;fill:#6d2a53}.R{mix-blend-mode:soft-light;fill:#a7a4b2}.S{opacity:.4;mix-blend-mode:multiply;fill:#6d2a53}.T{opacity:.5;mix-blend-mode:screen;fill:url(#g37)}.U{opacity:.5;mix-blend-mode:screen;fill:url(#g38)}.V{mix-blend-mode:soft-light;fill:#e7e6ea}.W{fill:url(#g39)}.X{opacity:.5;mix-blend-mode:multiply;fill:url(#g40)}.Y{opacity:.2;fill:#e79aa4}.Z{opacity:.5;mix-blend-mode:multiply;fill:url(#g41)}.a0{fill:url(#g42)}.a1{opacity:.5;mix-blend-mode:multiply;fill:url(#g43)}.a2{opacity:.5;mix-blend-mode:multiply;fill:url(#g44)}.a3{fill:url(#g45)}.a4{opacity:.5;mix-blend-mode:multiply;fill:url(#g46)}.a5{opacity:.5;mix-blend-mode:multiply;fill:url(#g47)}.a6{opacity:.5;mix-blend-mode:screen;fill:url(#g48)}.a7{opacity:.6;mix-blend-mode:multiply;fill:url(#g49)}</style><path class="a" d="m177.5 33.5l43.9-32.8h544.6l43.9 32.8h132.7c24.5 0 44.5 20 44.5 44.5v286.2c0 24.5-20 44.5-44.5 44.5h-132.7l-43.9 32.8h-544.6l-43.9-32.8h-132.7c-24.5 0-44.5-20-44.5-44.5v-286.2c0-24.5 20-44.5 44.5-44.5z"/><path class="b" d="m44.7 49.9h138.1l44-32.8h532.6l44 32.8h138.1c15.4 0 28.1 12.7 28.1 28.1v286.2c0 15.4-12.7 28.1-28.1 28.1h-138.1l-44 32.7h-532.6l-44-32.7h-138.1c-15.4 0-28.1-12.7-28.1-28.1v-286.2c0-15.4 12.7-28.1 28.1-28.1z"/><path class="c" d="m184.4 387.5h-139.7c-12.8 0-23.3-10.5-23.3-23.3v-286.2c0-12.8 10.5-23.4 23.3-23.4h139.7l43.9-32.7h530.5l43.9 32.7h139.7c12.8 0 23.3 10.6 23.3 23.4v286.2c0 12.8-10.5 23.3-23.3 23.3h-139.7l-43.9 32.8h-530.5z"/><path class="d" d="m759.4 17.1h-532.6l-5.4-16.4h544.6z"/><path class="d" d="m766 441.5h-544.6l5.4-16.5h532.6z"/><rect class="e" x="233.6" y="3.1" width="141.2" height="5.8" rx="2.9"></rect><rect class="e" x="233.6" y="427.5" width="141.2" height="5.8" rx="2.9"></rect><g clip-path="url(#cp1)"><path class="f" d="m982.4 449.5h-994.8v-478.3h994.8z"/><path class="g" d="m-47.2 88.4q29.3-37.3 149.2-46.7c119.8-9.5 334.2 73.6 456.5 55.3 122.2-18.2 206.2-113.7 302-150.8q95.9-37.2 155.8-33.6v90.7q-118.7-28.5-242.1 26.5c-123.4 55-201.4 106.3-290 96.8-88.7-9.5-217.7-76.5-348.5-71.7q-130.9 4.8-169.1 81.3z"/><path class="g" d="m-32.3 170.9q78.6-68.8 218.2-77.2c139.5-8.4 228.9 44.9 333.1 46.1 104.2 1.2 173.4-74.2 280.2-99.3q106.8-25.1 184.9-20.6l21.3 93.6q-152.4-26.3-297.2 19.1c-144.9 45.5-183.4 49-390.6 15.5q-207.3-33.4-336.2 95.8z"/><path class="g" d="m-17.9 31c154.6-63.4 418.3-10.9 584.8-32.2q166.4-21.2 294.6-124.5l96.3 9.6c-80 21.5-172.8 87.3-339.5 119.4-166.6 32.1-300.6 8.5-421.5 11q-120.9 2.4-224.6 38.2z"/><path class="g" d="m-18.5 291.4c156.1-59.4 406.2 7.9 573.2-9.1q166.9-17 422.6-50.8l2.3 15.4c-105.8 4.5-194 5.3-361.4 33.1-167.4 27.8-300.8 0.9-421.7 0.2q-120.9-0.6-225.5 32.5z"/><path class="g" d="m-24.9 257.6q94.8-67.2 261-81.9c166.1-14.8 432.4 23.9 615.3-1.2q182.8-25.1 192.6-39.5v35.9q-90.3 58-335.8 41.5c-245.5-16.4-519.8-94.9-721.2 67.5z"/><path class="h" d="m-12.4 449.5l0.4-252.9 32.6 47.7 23.4 54.6 21.2 18.8v100.3l1.3-12.6 16.7-113 10.9-14.3 1.9 2.5-3.3 26.9 3.3-2.6 2.7-22.6 12.6 13.4 3.6 35.6-10.9 58.8 3.3-3.3 13.9-57.6 29.9-33.5 8.6 2.4 6.3 9.4-6.3 37 4.7-2.3 10.2-46.2 3-6.7 9-1.2 9.3 78.7 16.2 19.1-4.3-9.3v-7.7l13.2-36.3 5.4-2 29.1 73.9 3.2 37.8 6.5-5.1 5.7-45.9v-5.4l-1.5-94.3 5.9-3.3 14.7 3.3 3.6 10.8 5.3 11.6 10 12.6 7.3 46.7 7.8-1.2 0.7-6 19.1-125.3 6.7-5.4 22.6 8.8 17.8 46.2 2.1-1.6 11 23.9-6.2 105.7 10.9-2 5.8-19.8-2.4-3 16.5-50.4 27.1-19.7 8.6-19.9 13.6 21.9 8.1 95.7 1.3-0.2 3-62.5 7.6-77.6-3-5.3 10.7-50.8 2.9 0.2 6.1 15.8v22.6l2.2 3 8.5 26.2-5.9 77 3.4-3.5 17.8-132.3 3.3-12.7 21.7-26 4.2-3.1 3 10.6v18.5l8.1-47.7 8.9 6.6 9.6 14.1 4.2 36 7.2 8.7 2.6 14.4-2.6 71.5 6.2 21.3 15.9 42.6v35l11.5 18.7 13-55.6 1.4-1 10.8-59.6 8.3-5.8 3.8 18.1 9 13.5 1.6 2.7-4.6 34.7 3-0.8 8.8-32.1 1.7-18 9-11.5 0.8-15.7 3.3-9.5v5.3l1 17-1 15.7 1.3 22 4.7 7.9-1.2 32.4 21.1 9.2 26.1-51.2-1.9-6.7 34.2-41.5 20.2-2.2 1.3 3.2-2.2 22.9 2.2-3.7 3.9-46 4-1.1 27 12.3 17.1 99.3 1.7-51 38.5-107.2 14.1 5.2 6.5 73.8-1.7 90.4 0.7-8.9 16.5-103.2 3.6-3.1 1.8-5.5 28.6-21.5v184h-795.8z"/><path class="i" d="m982.4 449.5h-182.7l24.7-28.7 1.5-41-3.6-15-49.8 48.2-10.2 36.5h-173.4l0.4-47.8 2.6-42.4-7.6 14.9-19.9 67.3-11.6 8h-43.3l-63.9-23.1h-5.3l-73.6 13.1-6.7 10h-55.8l27.8-17.5 16-39.9h-23.9l-25.5 29.1-7.8 28.3h-104.2v-14.7l39.4 7.1 3.7-2.7-4.7-43.5-12.9-9.8-4.3-9.3 23.5 18.7 3.3-34.2-8.2-30.5 29.1 73.9 3.2 37.8 6.5-5.1 7.5 6.3 12.5-15.5v14.3l10.7-40.6-4.6-63.8-6.1-44.7 6.4-0.5 7.5 26.3 9.8 7.6 7.3 46.7 7.8-1.2 27 11.6 15.7-24.4 7.4-117 15.1 43.7-19.3 97.3 20.9-73.6 2.2-20.9 11 23.9-6.2 105.7 10.9-2 24.6 5.6-4.1-23.1-14.7-2.3-2.4-3 29.2-1.5 13.4-52.2-1.2-14.8 2.2-1.6 7.3 38.5-3.1 6.9-1.9 53.5 7.8-3.6 10-51.9v-44.6l2.1 3.2 8.1 95.7 1.3-0.2 43.1 13-20.8-12.9 1-41-2.8-97-9.9-2.2-3-5.3 8.5-5.2 5.2-18.6 6-11v22.6l-6 29.8 4-14.6 4.2-12.2 8.5 26.2-5.9 77 3.4-3.5 11.2-6.2 23.8-53.7 10-79.4-4.4 3.2 4.2-7.4 5.2-20v18.5l-13.8 135.9-2.6 79.1 7-5.1 17.7-64.1 8.2-115.6 2.1-56.2-2.1 2.4 0.5-17.5 9.6 14.1 4.2 36-4 16.8-10.3 90.2 5-5 14.2-55.4 2.3-37.9 2.6 14.4-3 91.5-8.5-6-7.6 57.3 3.1 48.7 19.3-8.3 5.6-44.3-1.7-21.1 1.7-11.2 10.6 28.8v35l11.5 18.7 4.4-1.6 3.5-4.2 5.1-49.8 1.4-1-5.1 47.8 1.1 0.2 7.9-6.9 8.9-41.3 6.1-31.8 6.3-9.7-2.3-5.6 9.1 13.3-8.4 3.2-7.7 19.7-10.4 67.5 6.4-7.9 10.8-33.3 5.7-43.9 5.1-2.4-4.6 34.7 3-0.8 2.4 35 7.9-26.9 3.8-44.3 1.5-3.4-2.1 36.8 2.1-2.6 5.7-19.5 2.5-35.4v-16.3l0.8 12.1-0.8 19 1.1 18.7 4.7 7.9-1.2 32.4 21.1 9.2 16.9-9.5 33-44.7-23.8 3-1.9-6.7 35.3-0.1 10.6-25 8.5-18.6 1.3 3.2-2.2 22.9 2.2-3.7 11.4 27.9 1.9 77.1 6-9 6-71.5 3.3-0.5-1.5-55.8 7.8-3 17.1 99.3 1.7-51 12.6 1 27.8-103-9.9 42.1-15.5 74.3h13.5l7.7-6.1 18.7-62.8-2.3-47.5 6.3 71.2-1.5 93-0.6 33.1 11.5-16.7 7.7-64.2 2.2-67.4 1.8-5.5-1.3 63.4v99.1l13-7.8 8.4-35.8 8.5-140.4z"/><path class="j" d="m928.7 291l4 23.7-1 87-6.7 47.8h-8.1v-25.9l-6.9-69.8z"/><path class="k" d="m888.8 359.9l-3.5 89.6h-4.4l5.5-103 27.8-103z"/><path class="l" d="m847.2 300.2l7.8-3 17.1 99.3-5.7 46.4-8.1-63.1-9.6-23.8z"/><path class="m" d="m817.9 335.7l-14.7 18-3.5-0.5 19.1-43.6 1.3 3.2z"/><path class="n" d="m822.3 364.8l9.2 5.5 1.4 79.2h-12.6l4.1-28.7 1.5-43.4z"/><path class="o" d="m719.1 402l-4.3 47.5h-15.4l13.6-75.3 7.3-4.6z"/><path class="p" d="m687.7 389.3l3-0.8 2.4 35-1.5 26h-22.4l1.5-15.3 10.8-33.3 5.7-43.9 5.1-2.4z"/><path class="q" d="m790.1 357l4.8 34.4-22.4 21.6-10.2 36.5h-10.4l5.2-47.8z"/><path class="r" d="m519.4 369.6l-9.8 51.5 1-41-2.1-73.9 16.8-13.6z"/><path class="s" d="m559 357l-2.6 79.1v10.9l-3.6 2.5-17.5-43.8-1.3-45.8 23.8-56.2 10-76.9 5-5.7z"/><path class="t" d="m390.8 309.7l13.2 3-6.2 105.7 10.9-2-42 23.1-6.7 10h-55.8l27.8-17.5 16-39.9h-12.1l-0.3-15 15.4 6.6 18.9 3.6z"/><path class="u" d="m258.7 442.3l-0.5 7.2h-30.4l1.9-10.3-4.7-43.5 7.8 1.8 22.7 7z"/><path class="v" d="m282.8 449.5l13.1-47.8-5.1-69.6 8.3-13.1 9.8 7.6 7.3 46.7-8.7 37.7-8.9 10.2-7.8 28.3z"/><path class="w" d="m454.7 339.9l8.3 22.1-3.1 6.9-1.9 53.5-24.7-0.4-4.1-23.1-14.7-2.3-2.4-3 29.2-1.5z"/><path class="x" d="m475.8 366.9l10.2 54.3-20.2-2.4z"/><path class="y" d="m195.9 366.8l16.2 19.1 15.7 63.6h-240.2v-45.8l17.8-53 6.8-59.5 8.4-46.9 23.4 54.6-24.3 24.1-14.9 82.4 16.4-25.8 13.9-66.9 4.5 5-7.5 59.1 14.5-65.7 4.2-3.6 14.4 10.2v100.3l1.2-11.4 21.9-1.2 17.9-74.1 5.1-35.6 3.6 35.6-10.9 58.8 3.3-3.3 2.4 14 17.4-5.1 12.7-47.3-1.5-0.6 9.7-18-6.4 18-10.5 46.7 6.5-3.6 16.9-42.1 7.7-43.9-2.5-6.8 6.3 9.4-6.3 37-11.2 94.8 19.9-7.7 7-56.7-2.3-12.7 4.5-27.7v10l-1.1 24.9 2.8 36 6.6-49 0.7-68.3z"/><path class="z" d="m96 280.6l-3.3 26.9-1.6 6.1-7.9 58.4 7.9-80.8z"/><path class="A" d="m162.2 304.9l3.8 2.6-6.3 37-11.2 94.8v10.2h-15l4.1-58.6 16.9-42.1z"/><path class="B" d="m195.9 366.8l6.2 82.7h-22.8l6.6-93.1 0.7-68.3z"/><path class="C" d="m44 298.9l-24.3 24.1-9.6-13.3 10.5-65.4z"/><path class="D" d="m725.5-21.2c23.3-1.5 46.8 4.7 66.5 17.9q6 4 11.4 8.8c5.8 5.1 11.1 11 15.9 17.5q0.6 0.9 1.2 1.8 0.1 0 0.1 0 2.3 3.4 4.4 6.9c27.7 47.2 15.6 108.6-29.7 141.4-9.8 7.2-20.5 12.4-31.5 15.8q-3.2 1-6.4 1.7c-24.9 6-51.2 2.9-73.9-8.7-14.7-7.4-27.9-18.4-38.3-32.7-9.8-13.5-15.9-28.5-18.7-43.8-5.2-28.3 1.2-57.9 18.1-81.7 6-8.4 13.3-16.1 21.9-22.7q1.3-1 2.6-1.9c17.2-12.5 36.7-19.1 56.4-20.3z"/><path class="E" d="m725.9-14.8c21.9-1.4 44 4.4 62.6 16.8q5.6 3.8 10.7 8.3c5.4 4.8 10.4 10.3 14.9 16.4q0.6 0.9 1.2 1.8 0 0 0 0 2.2 3.2 4.2 6.5c26 44.3 14.6 102.1-27.9 132.9-9.3 6.8-19.3 11.7-29.7 14.9q-3 0.9-6 1.6c-23.4 5.6-48.1 2.7-69.5-8.2-13.8-7-26.3-17.3-36-30.8-9.2-12.6-15-26.7-17.6-41.2-4.9-26.6 1.2-54.4 17.1-76.7 5.6-8 12.5-15.2 20.6-21.4q1.1-0.9 2.4-1.8c16.1-11.7 34.5-18 53-19.1z"/><path class="F" d="m726.4-6.1c20.1-1.3 40.3 4 57.2 15.4q5.1 3.4 9.8 7.5c5 4.4 9.6 9.4 13.6 15q0.6 0.8 1.1 1.6 0.1 0 0.1 0 2 2.9 3.8 6c23.8 40.5 13.3 93.3-25.5 121.5-8.5 6.2-17.7 10.7-27.2 13.6q-2.7 0.8-5.4 1.4c-21.4 5.2-44 2.5-63.5-7.4-12.7-6.4-24.1-15.9-33-28.2-8.4-11.6-13.7-24.4-16.1-37.6-4.4-24.4 1.1-49.8 15.6-70.2 5.2-7.2 11.5-13.8 18.9-19.5q1.1-0.9 2.2-1.7c14.7-10.7 31.5-16.4 48.4-17.4z"/><path class="G" d="m726.6-2.8c19.4-1.2 38.8 4 55.1 14.9q5 3.2 9.5 7.2c4.8 4.3 9.2 9.1 13.1 14.5q0.6 0.8 1.1 1.5 0 0.1 0 0.1 2 2.8 3.6 5.7c23 39.1 12.9 89.9-24.5 117.1-8.2 5.9-17 10.2-26.1 13q-2.7 0.8-5.3 1.5c-20.6 4.9-42.4 2.3-61.2-7.2-12.2-6.2-23.2-15.3-31.7-27.2-8.1-11.1-13.2-23.5-15.6-36.2-4.2-23.5 1.1-48 15.1-67.6 5-7 11-13.4 18.1-18.9q1.1-0.8 2.2-1.6c14.2-10.3 30.4-15.8 46.6-16.8z"/><path fill-rule="evenodd" class="H" d="m726.6-2.8q0.4 0.1 0.7 0.2c1.2 0.4 2.5 0.9 3.6 1.5 0.9 0.6 1.6 1.4 2.4 1.9 1.4 1 3 1.7 4.6 2.3 2 0.8 3.6 2 5.5 2.7 5 2.1 10.8 1.2 16.1 1.1 1.3 0 2.1 0 3.4-0.1 0.8-0.1 1.6 0 2.4 0.2 1.8 0.3 3.8 0.8 5.1 2.2 0.8 0.8 0.8 2 1.1 3.1 0.4 1.6 0.5 2.1-1.1 2.2-2.7 0.2-5.9-0.2-6.8 3.2-0.6 2.1-1.3 4.1-1.5 6.4-0.3 2.4-1.4 5.2-0.4 7.6 0.8 1.8 3 2.5 4.6 3.5 1.3 0.9 2.9 1.7 4 2.9 0.9 1 1.2 2.2 1.8 3.3 0.9 1.8 2.5 3.3 4.5 3 0.8-0.1 0.8-0.4 1.7-0.2 0.8 0.3 1.6 1.1 2.2 1.6 1.8 1.6 3.1 3.8 4.9 5.3 1.2 1 2.7 1.9 4.1 2.7 0.8 0.6 1.6 1.6 2.5 2 0.5 0.2 1.2 0.3 1.8 0.5 1.6 0.6 2.6 1.2 3.6 2.7 2.1 2.9 4 7.4 4.5 11 0.4 2.4-0.6 3.1-2.6 3.7-1.7 0.5-4.4 0.6-5.6 2-1 1.2-1.3 2.9-2.2 4.2-0.9 1.3-1.7 2.5-3.2 2.8-2.7 0.6-5.6-0.1-8.2 0.1-3 0.3-7.1 2.3-7 5.7 0 1.6-0.6 3.1-1.2 4.6-0.3 1.1-1.1 2.4-0.1 3.4 0.7 0.6 2.2 0.5 2.9 1 0.9 0.7 1.1 1.6 1.1 2.6 0.1 1.6 0.5 3.5 0.2 5-0.6 2.8-4.2 5.3-6.9 5.8-3.1 0.6-6.3 1.3-9.3-0.3-1.9-1-3.3-2.9-5.7-2.6-1.5 0.2-2.4 1.2-3.7 1.7-1.3 0.6-2.6 0.8-3.8 1.5-1.2 0.7-2.3 1.3-3.6 1.8-1.8 0.6-3.6 1.4-5.4 1.8-2.2 0.5-4.3 0.1-6.5 0.1-1.9 0-3.4-0.7-5.3-0.9-2-0.3-4.1-1-6.2-0.6-1.6 0.2-3.1 0.7-4.7 0.9-4.5 0.5-4.7-4.3-4.8-7.6-0.1-2.3-0.3-4.4 0.2-6.6 0.4-1.8 0.9-3.6 0.9-5.4 0-1.8 0.1-3.7-0.2-5.4-0.1-0.7-0.3-1.4-0.2-2.1 0.3-1.1 1.1-2.1 2-2.8 2.1-1.6 4.6-4 7-5 2.6-1.1 4.2 1.6 5.5 3.3 0.8 1 1.9 2.2 3.2 2 1.2-0.2 2.1-1.1 3.4-1.2 1.5 0 2.5 0.6 3.1 2 0.3 0.6 0.3 1.1 0.6 1.7 0.3 0.6 0.9 0.8 0.8 1.5-0.3 1.5-2.5 1-3.6 0.9-2 0-2.3 0.1-3.3 1.8-0.5 1-1.2 2.7 0 3.4 0.9 0.6 2.9-0.1 3.9 0 4 0.2 8.1 0.4 9.6-4.2 0.5-1.5 0-2.1-0.1-3.5 0-1.4 1-2.7 0.9-4.2-0.1-2-2.1-3.7-3.2-5.3-1.3-1.8-3-3.7-4.7-5.3-1.2-1.1-2.2-1.4-3.6-2-1.4-0.6-1.8-2.1-2.9-3.1-2-1.7-4.2-1.5-6.6-1.8-2.5-0.3-4 0.4-6.2 1.3-4.6 1.9-9.3 4.1-13.3 7-3.4 2.6-6.8 5.4-10.8 7.1-1.9 0.8-3.7 1.4-5.7 1.9-0.6 0.1-0.6-0.2-1.2 0.4-0.3 0.4-1 1.8-1.2 2.3-0.4 1.3-0.2 3.2-0.4 4.6-0.2 1.3 0.1 2.6 0.1 4 0.1 1.9 0.3 3.8 0.4 5.7 0.2 3.1-2.7 5.1-3.1 8.2-0.5 4.5 1.2 7.9 2.4 12 0.9 3.4 2.1 6.6 2.7 10 0.3 2.1 0.1 4.1 0.7 6.2 0.7 2.7 2 5.1 3 7.7 0.8 2 1.8 3.9 3.3 5.5 0.9 1.1 1.9 1.7 2.8 2.9 1.6 2.2 3.1 4.4 4.7 6.5 0.9 1.1 2.1 1.7 3.3 2.5 1.2 0.8 2.5 1.5 3.7 2.3 3.2 2.1 6.7 5.8 10.7 5.9 1.2 0 2.4-0.3 3.6-0.2 1 0.1 1.8 0.6 2.7 0.8 0.8 0.2 1.5 0.4 2.2 0.7 1.2 0.4 2.1 0.5 3.4 0.6 1 0.2 2.1 0.5 3 0.9 0.5 0.2 1.2 0.9 1.7 0.9 0.7 0.1 0.8-0.3 1.4-0.6 0.6-0.3 1.3-0.4 1.9-0.7 1.8-0.7 4.3-1.2 6.3-0.4 1.1 0.5 1.6 1 2.8 1.3 2.2 0.5 3.3 0.5 5.5-0.2q-0.1 0.1-0.1 0.2c-20.6 4.9-42.4 2.3-61.2-7.2q-0.2-1-0.4-2c-0.4-2-1.3-3.3-2.5-4.9-1.6-2.1-2.8-4.3-4-6.7-1-2.1-2.2-3.8-3.6-5.7-1.7-2.3-2.8-5-4.6-7.3-1.6-2.2-3.8-3.8-5.8-5.6-3-2.6-4.5-6.5-6.1-10-0.7-1.6-0.9-3.5-1.7-5-0.5-1-1.1-1.8-1.5-2.7-1.1-2.4-2.9-5.2-4.7-7.1-1.3-1.3-2.8-1-4.3-1.6-1.5-0.6-2-2.5-3.1-3.6-1.2-1.3-3.2-1.6-5-1.2-4.2-23.5 1.1-48 15.1-67.6 1.4 2 2 6.1 2.9 7.2 0.6 0.7 1.4 1 2 1.8 0.5 0.7 0.7 1.4 1 2.2 0.6 1.2 1.3 2.7 2.7 2.5 1.4-0.2 2.5-2.5 3.9-1.1 0.6 0.6 0.6 1.8 1.3 2.5 0.7 0.6 1.2 1.1 1.8 1.9 0.9 1.3 1.3 2.5 2 3.8 0.4 0.7 0.9 1 1.5 1.5 0.4 0.4 1 1.3 1.5 1.6 1.7 0.8 2.3-1.4 2.7-2.6 0.2-0.6 0.4-1.3 0.7-1.9 0.4-0.7 0.7-0.8 1.2-1.3 1.3-1.3 1.6-3 1.7-4.8 0.3-2.6 0.5-5.3 1.5-7.7 0.4-1.1 0.5-1.9 1.3-2.7q0.9-0.9 1.7-1.9c0.7-0.7 1.2-1.4 1.8-2.3 0.8-1.1 1.9-1.9 2.7-3.1 0.7-0.9 1.8-3.2 1.7-4.4-0.1-0.6-0.5-1.1-0.5-1.7 0-0.6 0.4-1 0.2-1.6-0.3-1.4-2.8-2.8-3.9-3.5-1.6-1.2-3.9-2-5.9-2.4-2.1-0.4-4-0.2-6.1-0.2-0.8 0-2.3-0.1-3.3-0.7q1.1-0.8 2.2-1.6c14.2-10.3 30.4-15.8 46.6-16.8zm-6.4 61.4c-0.4 0.6 0.1 1.7 0.5 2.1 0.8 0.9 2.4 0.8 3.4 1.1 1.2 0.3 2.3 0.2 3.4-0.4l-1-0.3c1.5 0 3.1 0.4 3.8-1.3 0.4-1-0.1-1.7-0.9-2.1-1.4-0.8-2.9-1.7-4.4-1.8-1.1 0-1.9 0.6-2.7 1.3-0.6 0.4-1.7 0.9-2.1 1.4zm29.8-44.8c-0.5 1-0.5 2.3-0.2 3.3 0.2 0.8 0.7 2 1.2 2.7 1.1 1.6 3.4 2.1 5.1 2.6 1 0.2 3.5 0.6 1.4-1 0.8-0.2 1.4-0.2 2-0.7 0.4-0.3 0.7-0.9 1.1-1.2 0.7-0.9 1.1-2 1.8-3 0.5-0.7 1.2-1.5 1.9-2.1 0.6-0.5 1.3-0.8 1.3-1.7 0.1-0.6-0.2-0.9-0.7-1.1-0.5-0.2-1.4-0.1-1.9-0.1q-1-0.1-2-0.1c-1.9-0.2-3.8 0.5-5.7 0.5-1.1 0.1-1.9 0-3 0.3-0.9 0.2-1.9 0.7-2.3 1.6zm-55.7-1.6c-0.7 1.7 0.3 3.9 1.1 5.4 1.1 2.1 3.5 4.1 5.4 5.7 0.8 0.7 1.5 1.1 2.5 1.3 1 0.3 2 1 0.9 0 1.5-0.5 2.6-1 4-1.6 1.6-0.8 3.4-1.1 5.1-1.7 2.8-1 6.2-2.2 8.1-4.6 1.3-1.5 2.1-4 1.4-5.9-0.5-1.3-1.5-2.8-2.6-3.6-1.5-1.1-3.3-1.5-5-2-1.7-0.4-3.5-0.4-5.2 0.1-1.2 0.4-2.3 1.1-3.5 1.4-0.6 0.2-1.2 0.3-1.8 0.6-0.7 0.2-1.5 0.1-2.3 0.2-1.2 0-2.1-0.1-3.1 0.6-1 0.6-1.8 1.3-2.7 2-0.9 0.6-1.9 1.1-2.3 2.1z"/><path class="H" d="m779.1 104.5c0.5-1.2 1.6-2.4 2.4-3.2 0.9-1 1.8-2 2.6-3.2 0.8-1.3 1.9-2 3.3-2.7 1-0.4 2.2-0.6 3.3-1 0.6-0.2 1.2-0.3 1.7-0.3 0.8 0.1 1 0.3 1.7 0.6 0.5 0.2 0.8 0.2 1.2 0.6 0.3 0.3 0.5 0.7 0.7 1.1 0.3 0.7 0.4 1.4 0.6 2.1 0.1 0.6 0.4 1.1 0.5 1.7 0.3 1.5 0.4 2.6-0.2 4-0.6 1.5-1.7 2.8-2.6 4.1-0.7 0.9-1.4 1.7-2.1 2.5-0.5 0.7-0.9 1.2-1.7 1.6-1.2 0.5-2.5 1.3-3.8 1.7-0.5 0.1-0.9 0.4-1.5 0.3-0.4 0-1.2-0.4-1.6-0.6-0.6-0.3-1-0.9-1.5-1.2-0.6-0.5-1.4-0.7-2.1-1-0.8-0.4-2.5-0.8-2.7-1.9-0.2-1 0.9-2.7 1.3-3.4 0.2-0.2 0.2-1 0.5-1.8z"/><path class="I" d="m777.8 116.3q-0.1 0.9-0.6 1.5c-0.7-0.3-1.8 0.5-2.6-0.1 0.2-0.8 0-2.2 1.1-2.2 0.2-0.1 0.4 0.2 0.6 0.2 0.2 0 0.5-0.1 0.7 0 0.5 0.2 1 1.3 1.3 1.7z"/><path class="H" d="m761.2 105.5c-0.9 0.2-1.3 0.2-2.1 0.1-0.6-0.2-1.3-0.4-1.9-0.6-1.1-0.2-2.5-0.8-3.7-0.9-1.1 0-1.6 0.6-2.5 1.1-0.5 0.3-1.1 0.5-1.7 0.8-0.3 0.2-0.6 0.2-1 0.4-0.3 0.3-0.6 0.5-1 0.7-0.8 0.3-1.7 0.2-2.5 0.6-0.6 0.2-1.2 0.6-1.9 0.6-0.5 0-0.9-0.3-1.4-0.5-0.7-0.2-1.3-0.2-2-0.2-2.2 0-4.1 1.2-6.3 1.4-2 0.1-3.2-2.4-4.5-3.6-0.2-0.1-0.5-0.2-0.6-0.5-0.2-0.2-0.2-0.6-0.2-0.9-0.2-0.6-0.4-1-0.8-1.4-0.3-0.2-0.4 0.1-0.6-0.4-0.1-0.2 0.1-0.8 0.2-1.1 0.4-0.8 1-1.2 1.8-1.4 0.8-0.3 1.6-0.7 2.5-1 0.7-0.2 1.5-0.3 2.3-0.7 0.7-0.4 1.2-1 1.9-1.3 1.8-0.9 3.2-0.5 5.1-0.2 1.7 0.3 3.7 1.3 5.2 0 0.7-0.5 0.5-0.8 0.7-1.4 0.2-0.7 0.8-1.4 0.9-2.2 0-0.3-0.3-1.1-0.4-1.5-0.2-0.6-0.5-1.3-0.6-1.9-0.1-0.8 0.3-1.1 0.5-1.7 0.1-0.5-0.1-0.3-0.1-0.7-0.1-0.6-0.1-0.7 0.1-1.2 0.1-0.9 0.3-1.6 0.7-2.3 0.4-0.6 0.7-1.1 0.8-1.9 0.2-0.8 0.3-1.8 0.3-2.6 0-0.9-0.2-1.9-0.6-2.7-0.2-0.4-0.5-0.7-0.8-1-0.7-1.1-0.8-2.5-1.1-3.7-0.4-1.9-0.3-5.2-2.8-5.4-0.7-0.1-1.4 0.4-2.1 0.2-1.6-0.5-1.9-2.3-2.3-3.7-0.5-2.3-0.3-4.7-0.1-7.1 0.2-1.5 0.4-2.8 1.6-3.9 2.5-1.9 5.7-1.1 8.3-2.5 2.6-1.4 4.3-4.2 6.4-6.2 1-1 2.6-2.1 4.1-2.1 0.5 0 1.2 0.1 1.7 0.3 1.2 0.4 1.3 1.2 2.1 1.9 0.5 0.5 0.9 0.6 1.5 0.7 1.7 0.4 2.7 2.8 3.7 4.1 1.4 1.9 3.2 3.8 5.3 4.8 2.5 1.2 5.1 2.3 7.8 3.1 1.9 0.7 4 1.3 5.8 2.2 1.3 0.7 2.3 1.8 3.2 2.9 1.3 1.6 1.9 3.4 1.4 5.4-0.5 1.9-1.6 1.8-3.2 2.4-0.5 0.1-1.7 0.4-2 1-0.4 0.9 0.8 2.1 1.3 2.7 0.4 0.6 1.5 1.7 1.1 2.5-0.4 0.7-1.7 1.3-2.3 1.7-0.5 0.4-1 1-1.7 1-0.6-0.1-0.9-0.5-1.4-0.8-0.8-0.4-1.5-0.1-2.4 0-0.6 0-1.2-0.3-1.8-0.4-0.8-0.2-1.7-0.1-2.4-0.4-1.2-0.6-1.6-1.8-3.1-2-0.4-0.1-1-0.1-1.5-0.3-0.3-0.1-0.6-0.4-1-0.7-0.8-0.5-2.1-1.3-3-0.7-1.1 0.6-0.8 2.3-0.4 3.1 0.3 0.8 1 1.9 0.4 2.6-0.6 0.7-1.4 0.7-1.8 1.6-0.9 2.7 2.5 4.2 3.8 6 1.9 2.8 0.6 5.9-0.4 8.7 0 0.3 0 0.6-0.1 0.9-0.2 0.4-0.5 0.5-0.7 0.9-0.3 0.5-0.2 1.2-0.1 1.7 0.1 0.8 0.2 1.3 0.6 2 0.5 0.7 1.2 1.4 1.6 2.1 0.8 1.6-0.4 3.2-1.9 3.7-1 0.4-2.3-0.1-3.3 0-0.8 0.1-1.6 0.3-2.4 0.3-0.5 0-1-0.2-1.4-0.3-0.7-0.1-1.4 0.1-0.8-0.2z"/><path class="H" d="m716.1 60.2c-0.7 0.7-1.1 1.2-1.9 1.7-0.6 0.3-1.2 0.6-1.8 1-1.7 1.1-3.1 2.6-4.6 3.7-1 0.7-1.9 1-3 1.5-1.3 0.7-2.1 1.9-3.3 2.7-1.6 1.2-3.3 2.3-5.4 2.3-0.8-0.1-1.4-0.2-2-0.9-0.5-0.6-0.5-1.4-1-2-0.4-0.5-1-0.6-1.6-0.9q-1.1-0.6-2.1-1.3c-0.7-0.5-1.2-0.6-2-0.7-0.6-0.1-1.2-0.6-1.9-0.3-0.7 0.3-0.6 1.2-0.8 1.9-0.4 1.4-0.7 2.6-0.4 4.1 0.2 0.8 0.4 1.1 1.1 1.7 0.7 0.4 1.3 0.9 1.4 1.8 0 1.2-0.2 2.5-0.7 3.6 0 0.2-0.4 0.7-0.5 0.7-0.4 0.4-0.1 0.2-0.6 0.2-0.5 0.1-0.9 0-1.4 0.3-0.7 0.5-1.5 1.6-1.8 2.4-0.3 0.5-0.5 1.2-0.5 1.8 0 0.7-0.3 1.3-0.2 2 0 1.5-0.4 2.7-0.1 4.2 0.2 1.7 0.2 3.4 0.2 5.1-0.1 3.6 0.4 7-1.1 10.4-0.4 0.8-1.5 2.1-2.5 2.2-0.4 0.1-1-0.2-1.4-0.2-0.8-0.1-1.3 0.2-2.1 0.4-0.8 0.2-2 0.6-2.9 0.3-0.8-0.2-1.7-1.1-2.3-1.8-0.3-0.4-0.5-0.8-0.9-1.1-0.3-0.3-0.5-0.4-0.8-0.7-1-1.2-1.7-2.2-3.1-2.8-0.5-0.2-1-0.3-1.6-0.3-0.6 0-1.4 0.2-2 0.1-1.2-0.3-1.7-2.3-2-3.3-0.3-1.4-0.5-3.1-1.6-4.2-0.7-0.6-1.7-0.7-2.4-1.3-1.1-0.7-1.9-1.2-3.1-1.7-0.5-0.2-0.8-0.2-1.1-0.7-1.1-1.3-1.3-3.3-1.5-4.9-0.3-2-0.2-4-0.4-6-0.3-2.1-0.2-3.8 0.1-6 0.3-1.9 0.1-3.8 0.1-5.7 0.1-1.5 0.2-3 0.2-4.4 0.1-1.5 0.5-3 0.8-4.5 0.2-1.1 0.3-2.2 0.7-3.4 0.5-1.2 1.1-2.4 1.4-3.7 0.4-1.4 0.8-2.6 1.4-3.9 0.6-1.1 1.8-3.3 3.5-2.4 1.2 0.5 2 2.2 2.8 3.2 1.2 1.7 3.2 2.1 5.2 2.3 1.5 0.2 3.1 0 4.7 0.3 0.8 0.1 1.9 0.1 2.5 0.6 0.5 0.4 1 1.1 1.2 1.6 0.6 1.4 1.4 2.6 2.5 3.6 0.9 0.8 2.3 2 3.6 2.3 0.8 0.1 1.8 0 2.6 0 1.3 0.1 2.6-1.2 3.2-2.2 1.4-2.2 3.4-3.9 4.7-6 0.8-1.4-0.7-2.8-0.9-4.2-0.1-1.1 0.3-2 0.5-3.1 0.2-0.9 0.1-2 0.1-2.9 0-3.1 2.2-5.3 5.5-5 1.9 0.2 3.4 1.3 4 3.1 0.3 0.7 0.6 1.5 0.8 2.3 0.2 1.1 0.2 2.1 0.8 3.1 1.9 3.9 5.9 5.4 9.6 7 1.7 0.8 3.4 1.9 4.7 3.2 0.7 0.7 1 0.9 1.1 2 0.1 0.7 0.3 1.2 0.5 2 0.2 0.7-0.1 1.5-0.2-0.2z"/><path class="J" d="m791.2 19.3q0.1 0.2 0.2 0.4c0.7 1.8 1.7 3.3 2.9 4.9 0.2 0.4 0.5 0.9 0.8 1.2 0.3 0.2 0.5 0.2 0.7 0.5 0.6 0.5 1.2 1.1 1.7 1.6 1.1 0.8 1.8 2.2 2.6 3.4 1 1.3 2.7 2.3 3.5 3.7 0.9 1.6 1.3 3.4 2.4 4.9l0.8 1c0.6 0.9 0.4 1.6 0.7 2.9-0.5 0.6-1.5 1.6-1.5 2.5 0 0.2 0 0.6 0.1 0.9 0.2 0.8 0.3 1.6 0.6 2.3 0.6 1.5 1.1 2.9 2 4.2 0.7 1.1 1.6 1.9 2.4 2.9 1.7 1.9 3.4 3.6 3.9 6.2 0.3 1.4 0.5 2.8 0.8 4.3 0.2 0.8 0.5 1.7 0.5 2.5 0 0.6-0.1 1.3-0.1 1.9-0.1 0.8 0.4 1.4 0.6 2.2 0.2 0.9 0 1.6-0.2 2.5-0.4 1.2-1.4 1.7-1.8 2.8-0.3 0.6-0.2 1.2-0.1 1.9 0.3 2.9-1.4 5.2-2 8-0.4 2 0.4 4.1 0.2 6.2-0.3 2.1-0.9 4.2-1.4 6.2-0.3 1.4-0.1 2.2 0.2 3.5 0.2 1.2 0.4 2.9 0.1 4.1-0.3 1.4-0.7 2.7-0.9 4.2-0.1 1.1 0.1 2.2 0 3.3-0.2 1-0.8 1.8-1.2 2.8-0.8 2.1-2.1 3.8-3 5.9-0.7 1.7-0.9 3.9-2.4 5.1-0.5 0.4-0.9 0.5-1.5 0.8-0.9 0.3-1.5 1.1-2.3 1.6-0.4 0.3-0.9 0.4-1.4 0.5-0.6 0.3-1.2 0.7-1.9 0.8-1 0.2-2.2-0.2-3.2-0.1-1.3 0-2.2 0.8-2.9 1.7-0.8 1-1.5 2.1-2.2 3.2-1 1.6-1.3 3.8-2.6 5.3-0.5 0.5-1.2 0.7-1.8 1-0.8 0.3-1.6 0.8-2.3 1.2-0.8 0.4-1.4 1-1.9 1.7-0.4 0.5-0.6 1-0.8 1.6-0.1 0.3-0.1 0.6-0.1 0.9-0.2 0.5-0.6 0.8-0.8 1.2-0.3 0.5-0.9 1.5-0.8 2 0.2 1.2 2.1 0.2 1.9 1.2 0 0.6-1.1 1-1.5 1.3-0.6 0.5-1.2 1.3-1.5 2-0.8 1.3-0.7 2-2.2 2.6-1.2 0.4-2.3 0.7-3.6 0.8-1.5 0.1-2.4 1.1-3.7 1.6-0.7 0.3-1.3 0.9-1.9 1.3-0.7 0.5-1.3 0.5-2 0.8-0.5 0.3-1.2 0.7-1.5 1.1-0.2 0.4-0.1 0.9-0.2 1.2-0.1 0.8-0.6 1.1-1 1.7-0.7 0.8-1.4 1.4-2.2 2 9.1-2.8 17.9-7.1 26.1-13 37.4-27.2 47.5-78 24.5-117.1q-1.6-2.9-3.6-5.7 0 0 0-0.1-0.5-0.7-1.1-1.5c-3.9-5.4-8.3-10.2-13.1-14.5z"/><circle class="K" cx="705.4" cy="49.4" r="44.5"/><circle class="L" cx="705.4" cy="49.4" r="21.1"/><path class="H" d="m722.6 119c1.9-1.4 5.6-1.1 7.7-0.6 2.1 0.5 4.3 1.2 5.4 3 0.7 1 0.8 2.5-0.1 3.3-0.5 0.5-1.2 0.6-1.9 0.8q-1.7 0.3-3.3 0.6c-1.2 0.2-2.6 0.4-3.7-0.1-0.6-0.3-1.1-0.7-1.6-1.2-1.6-1.4-5.2-3.8-2.5-5.8z"/><path class="H" d="m735.4 113.9c0.9 2-1.2 1.4-2.5 1.2-4.5-0.8-9-2.2-13.6-1.4-1.9 0.3-4 0.9-5.6-0.1-0.8-0.6-1.2-1.4-1.6-2.3-1-2.1-1.5-4.5-1.6-6.8 0-0.8 0.1-1.8 0.8-2.2 0.7-0.3 1.5 0.2 1.9 0.9 0.3 0.6 0.3 1.4 0.2 2.2-0.2 1.4-0.4 2.9 0.5 4 0.7 0.7 1.7 0.9 2.7 1.1q5 0.9 9.9 1.8c1.5 0.3 3 0.5 4.5 0.4 1.3 0 3.7-0.5 4.4 1.2z"/><path class="H" d="m696.3 32.7q1.4-2.4 2.7-4.8c0.2-0.4 0.5-0.9 0.9-1.2 0.7-0.5 1.5-0.5 2.3-0.5 4.3-0.3 8-2.9 12.2-3.6 0.7-0.2 1.6-0.2 2.2 0.3q-1.3 1.3-2.6 2.5c-0.6 0.5-1.2 1.1-1.9 1.4-1.1 0.6-2.4 0.7-3.6 0.7-2.5 0.2-5.1 0.5-6.9 2.2-1.4 1.3-2 3.2-3.3 4.6-2 2.4-3.4 0.9-2-1.6z"/><path class="H" d="m718.6 21.6c-0.4 0-0.6-0.6-0.5-1 0.2-0.5 1-0.9 1.5-0.6 0.6 0.2 0.8 1 0.5 1.5-0.4 0.5-1.2 0.6-1.6 0.1z"/><path class="H" d="m726.8 1.2c2.3 0.5 4.3 1.4 6.3 2.5q5 2.6 9.4 5.9c0.2 0.1 0.4 0.3 0.4 0.5 0 0.1-0.1 0.3-0.2 0.4-1.3 1.3-3.5 0.8-5.3 0.1q-2.5-1.1-5-2.4c-2.3-1.3-4.7-2.7-7.4-2.6-1 0.1-2 0.4-3 0.5-2.1 0.3-4.7-1.6-2.9-3.7 1.5-1.8 5.7-1.6 7.7-1.2z"/><path class="H" d="m746.2 7.8c0.5-0.1 1 0 1.4 0.1q2.2 0.5 4.5 0.9c0.4 0.1 0.9 0.3 0.9 0.7 0 0.2-0.2 0.4-0.3 0.5-0.7 0.9-1.5 1.7-2.5 2.3-0.9 0.6-2.1 0.9-3.2 0.6-2.1-0.6-4-4.6-0.8-5.1z"/><path class="H" d="m744 115.5q3.3-1.4 6.7-2.7c0.7-0.3 1.4-0.6 2.1-0.6 0.9 0.1 1.6 0.5 2.4 0.8 1.3 0.3 2.6 0.2 3.9 0.4 2.9 0.4 6 2.5 8.6 1.1 0.5-0.3 1-0.7 1.6-0.8 0.6-0.1 1.3 0.2 1.3 0.8 0 0.2-0.2 0.5-0.3 0.7-1.9 2.7-5.1 4.5-8.4 4.7-1.2 0.1-2.5-0.1-3.4-0.9-0.5-0.4-0.8-1.1-1.3-1.6-1.2-1.2-3.1-1.5-4.8-1.3-1.7 0.2-3.2 0.9-4.9 1.5-1.1 0.4-5.7 2.3-6.8 1.3-1.7-1.5 2.4-3.1 3.3-3.4z"/><path class="H" d="m750 120.3c0.8-0.3 1.7-0.4 2.4 0 0.7 0.4 1.2 1.3 0.9 2.1-0.3 1-1.5 1.5-2.5 1.7q-0.9 0.3-1.8 0.6c-0.4 0.1-0.8 0.2-1.2 0.2-0.4 0-0.8-0.1-1.2-0.1-0.9-0.1-1.8 0.1-2.6 0.5-0.2 0.1-0.5 0.2-0.7 0.2-0.3 0-0.6-0.1-0.9-0.3q-1.2-0.7-2.2-1.6c-0.2-0.1-0.3-0.3-0.3-0.4 0-0.2 0.2-0.3 0.4-0.4 1.8-0.8 3.7-0.2 5.5-0.3 2.6 0 2.3-1.2 4.2-2.2z"/><path class="M" d="m678.3 73.5q0 1.6-0.1 3.2c-1.7 23.3-21.1 41.8-44.9 41.8-11.6 0-22.1-4.4-30.1-11.6q-2-1.8-3.7-3.7-2.7-3.1-4.8-6.6-1.1-1.8-2-3.7-0.2-0.5-0.4-1-1-2.2-1.8-4.5-0.5-1.7-1-3.5c-0.8-3.3-1.2-6.8-1.2-10.4q0-2.6 0.3-5.1 0.2-1.8 0.6-3.6 0.3-1.8 0.8-3.5c5.3-18.9 22.7-32.8 43.3-32.8 9.7 0 18.6 3.1 26 8.3q2.6 1.8 4.9 4 0.5 0.5 1 0.9c3.7 3.8 6.9 8.3 9.1 13.2q1.7 3.7 2.7 7.8 0.7 3 1 6.2 0.1 0.9 0.2 1.8v0.1q0.1 1.3 0.1 2.7z"/><path class="N" d="m673.3 73.5q0 1.4-0.1 2.9c-1.5 20.7-18.8 37.1-39.9 37.1-10.3 0-19.7-3.9-26.8-10.3q-1.7-1.6-3.2-3.3-2.4-2.7-4.3-5.9-1-1.6-1.8-3.2-0.2-0.5-0.4-0.9-0.9-2-1.5-4.1-0.5-1.5-0.9-3c-0.7-3-1.1-6.1-1.1-9.3q0-2.3 0.3-4.5 0.1-1.6 0.5-3.2 0.3-1.6 0.7-3.2c4.7-16.8 20.2-29.1 38.5-29.1 8.6 0 16.6 2.7 23.1 7.3q2.3 1.7 4.4 3.7 0.4 0.3 0.8 0.8c3.4 3.3 6.2 7.3 8.1 11.7q1.5 3.3 2.4 6.9 0.7 2.7 1 5.5 0.1 0.8 0.1 1.7 0.1 1.2 0.1 2.4z"/><path class="O" d="m671.6 73.5q0 1.4-0.1 2.7c-1.4 19.9-17.9 35.6-38.2 35.6-9.9 0-18.9-3.7-25.7-9.8q-1.6-1.5-3.1-3.2-2.3-2.6-4.1-5.6-0.9-1.5-1.7-3.2-0.2-0.4-0.4-0.8-0.8-1.9-1.5-3.9-0.4-1.4-0.8-2.9c-0.7-2.9-1-5.9-1-8.9q0-2.2 0.2-4.3 0.2-1.6 0.5-3.1 0.3-1.5 0.7-3c4.5-16.1 19.3-27.9 36.9-27.9 8.2 0 15.9 2.6 22.1 7q2.3 1.6 4.2 3.5 0.5 0.3 0.9 0.7c3.2 3.3 5.8 7.1 7.7 11.3q1.5 3.1 2.3 6.6 0.7 2.5 0.9 5.3 0.1 0.7 0.2 1.6 0 1.1 0 2.3z"/><path class="P" d="m667.2 73.5q0 1.2-0.1 2.4c-1.2 17.6-15.9 31.5-33.8 31.5-8.7 0-16.7-3.3-22.7-8.7q-1.5-1.4-2.8-2.8-2-2.3-3.6-5-0.8-1.3-1.5-2.8-0.2-0.3-0.3-0.7-0.8-1.7-1.4-3.4-0.4-1.3-0.7-2.7-0.9-3.7-0.9-7.8 0-2 0.2-3.8 0.2-1.4 0.4-2.8 0.3-1.3 0.7-2.6c4-14.3 17.1-24.7 32.6-24.7 7.3 0 14.1 2.3 19.6 6.2q2 1.4 3.7 3.1 0.4 0.3 0.7 0.7c2.9 2.8 5.2 6.2 6.9 9.9q1.3 2.8 2 5.8 0.6 2.3 0.8 4.7 0.1 0.7 0.1 1.4 0.1 1.1 0.1 2.1z"/><path class="Q" d="m667.2 73.5q0 1.2-0.1 2.4c-6-2.3-12.6-3.3-19-3.1-8 0.3-15.8 2.2-23.3 5.1-7.6 2.9-15.2 6.9-20.6 13q-0.8-1.3-1.5-2.8 0.7-0.5 1.2-1c5.2-4.4 11.3-7.8 17.6-10.4 7.7-3.4 15.9-5.8 24.3-6.7 7.1-0.8 14.4-0.4 21.3 1.4q0.1 1.1 0.1 2.1z"/><path class="R" d="m667 70c-5.9-2.3-12.5-3.2-18.9-3-8 0.2-15.8 2.2-23.3 5-8.6 3.2-17.1 8-22.4 15.4q-0.8-1.7-1.4-3.4c0.8-1.1 2.1-2 2.9-2.7 5.2-4.5 11.3-7.8 17.6-10.5 7.7-3.3 15.9-5.8 24.3-6.7 6.8-0.7 13.8-0.4 20.4 1.2q0.6 2.3 0.8 4.7z"/><path class="S" d="m662.8 88.2c-0.8 1.7-2.1 3-3.4 4.2-4.3 4.1-9 7.7-14.1 10.9-1.4 0.8-2.9 1.7-4.6 2-1.3 0.2-2.6 0-3.9-0.2-5.2-0.8-10.3-2.1-15.2-4-0.8-0.3-1.6-0.7-2.1-1.4-0.8-1-0.6-2.4-0.1-3.5 1.1-2.6 3.2-4.7 5.7-6.1 2.4-1.4 5.1-2.3 7.9-3.1 8-2.3 16.3-4.3 24.7-3.6-0.7 4.3-3.7 7.8-6.9 10.8-1.1 1.1-2.4 2.2-3.7 3.1-5.4 3.6-12.7 4.1-18.6 1.2-0.2-0.1-0.5-0.3-0.6-0.5-0.1-0.5 0.3-0.9 0.7-1.1 4.8-3 10-5.4 15.3-7.1 0.6-0.2 1.2-0.4 1.8-0.1 0.5 0.2 0.8 1.1 0.3 1.4-4.3 0-8.6 2.1-11.3 5.5 3.6 1.5 7.8 1 11.1-0.9 3.4-1.9 5.9-5 7.5-8.5 0.1-0.2 0.2-0.4 0.1-0.5-0.1-0.2-0.3-0.2-0.5-0.3-5.9-0.8-11.9 0.1-17.8 1.4-2.9 0.7-5.9 1.6-8.5 3.2-2.6 1.6-4.8 4-5.5 6.9-0.1 0.3-0.2 0.6-0.1 0.9 0.1 0.4 0.5 0.7 0.8 0.9 4.2 2.8 9.4 3.3 14.4 3.8 0.8 0.1 1.7 0.2 2.5 0.1 0.6-0.2 1.3-0.4 1.9-0.7 6.3-2.7 12.2-6.3 17.4-10.7 1.8-1.4 3.5-3 4.4-5.1 1-2 1-4.7-0.5-6.4-1.6-1.7-4.1-2-6.4-2.1-4.6 0-9.1 0.5-13.7 1.2q-5.5 0.9-10.9 2.2c-3 0.8-6.3 2.6-8.9 4.2-5.2 3-8.1 7.6-11.4 12.5q-1.5-1.4-2.8-2.8c6.7-7.2 15.4-12.2 24.8-15.1 9.7-3 20-3.8 30.2-3.1 0.9 3.5 1.5 7.3 0 10.5z"/><path class="Q" d="m664.2 59.5c-11.2-2.4-23.1-1.2-34.1 2.1-6.7 2-13.1 4.8-18.8 8.7-3.7 2.7-7.1 5.9-9.8 9.7q-0.7 0.9-1.2 1.3-0.9-3.7-0.9-7.8 0-2 0.2-3.8 0.5-0.7 1-1.4c4.2-5.2 10.1-8.9 16.2-11.6 12.6-5.7 26.6-7.7 40.5-7.1 2.9 2.8 5.2 6.2 6.9 9.9z"/><path class="S" d="m656.6 48.9c-10.2-2.7-21.3-2.4-31.3 0.9-10.2 3.3-18.3 9.4-25.3 17.1q0.3-1.3 0.7-2.6c4.1-5.7 10.8-10.5 16.5-13.3 3.9-1.9 8.2-3.3 12.4-4.2 7.6-1.8 15.7-2.4 23.3-1q2 1.4 3.7 3.1z"/><path class="e" d="m623.7 59c0.1-1 1.4-1.6 2.2-1.1 0.9 0.5 1 1.8 0.4 2.6q-0.2 0.2-0.5 0.3-0.3 0.1-0.5 0-0.9 0-1.7-0.1c-0.1 0-0.3 0-0.4-0.1-0.1-0.1-0.1-0.2-0.1-0.3q0.1-0.7 0.3-1.3z"/><ellipse class="T" cx="626.3" cy="61.5" rx="18.8" ry="17.7"/><path class="U" d="m677 99.8c-6.9 13-20 19.5-29.1 14.6-9.1-4.9-10.9-19.4-4-32.3 7-13 20-19.5 29.1-14.6 9.2 4.9 11 19.4 4 32.3z"/><path class="S" d="m631.6 74.5c9.7-2.7 20-4.5 29.9-2.4 2.2 0.5 4.6 1.4 5.6 3.4-5-1.6-10-3.1-15.2-3.3-5.3-0.2-10.4 0.9-15.5 2-2.8 0.6-5.7 1.3-8.4 2.2-2.6 1-5.1 2.3-7.7 3.4-2.4 1-4.8 1.8-7 3-1.4 0.8-2.6 1.8-3.8 2.8-0.6 0.5-2.4 2.7-3.1 2.5 2-2.9 5.6-5.2 8.6-7 3.4-1.9 6.9-3.4 10.5-4.7q3-1.1 6.1-1.9z"/><path class="V" d="m613 75.6c-2 1-4.5 1.9-6.3 3.3 1-0.3 2-1.4 2.8-2.1q1.4-1.2 2.9-2.4c1.6-1.4 3.3-2.8 5.2-3.7 2.1-1.1 4.5-1.6 6.8-2.3 4-1.1 8-2.5 12.1-3.4 7.4-1.6 15-1.3 22.6-0.9q-3.1 0-6.1 0c-2.2 0.1-4.5 0.1-6.7 0.5-3.2 0.5-6.2 1.6-9.3 2.4-2.7 0.7-5.6 1.1-8.3 1.9-3.2 0.9-6.3 2.3-9.4 3.7-2.1 0.6-4.4 2.1-6.3 3z"/><path class="R" d="m661 64.2c1.1 0.8 2.5 1.4 3.8 0.9-1.1-0.6-2.4-0.8-3.6-0.7z"/><path class="S" d="m613.8 67.9c1.6-0.9 3.4-1.4 5.2-2.1 6.8-2.6 13-7.3 20.2-8 2.9-0.2 5.8 0.2 8.7 0.2 4.9 0 10-1 14.5 1-3.4-0.9-6.9-1-10.4-0.9-13 0.4-26 3.7-37.2 10.3-2.9 1.7-6.9 3.7-8.9 6.4 3-1.6 4.8-5.1 7.9-6.9z"/><path class="R" d="m606 58.8c2.4-1.7 3.7-4.7 6-6.6 1.4-1.2 3.2-1.9 4.9-2.6 2.4-0.9 4.8-1.8 7.2-2.6 3.3-1 6.7-1.6 10.1-2.2 3.4-0.5 6.8-1 10.1-0.6 1.3 0.2 2.5 0.4 3.8 0.7-4.6-0.5-9.2 0.1-13.7 0.8-2.8 0.4-5.5 0.8-8.2 1.5-3.8 1.1-7.5 2.9-11.1 4.8-2.9 1.5-5.9 3.1-7.9 5.7z"/><path class="Q" d="m623.2 83.5c3.3-1.7 7.2-2.4 10.8-3.5 2.8-0.7 5.4-1.7 8.2-2.4 5.7-1.3 11.7-1.4 17.4-0.1-12.1-0.5-24.3 1.7-35.4 6.4-2.2 0.9-4.2 1.9-6.2 3.2 1.6-1.3 3.3-2.6 5.2-3.6z"/><path class="W" d="m515.4 449.5l-5.9-23.1 3.4-4-17.2-36.3 9.2-6.5 22.1 1.6 110.3 41.4 7.3-1.5 67.9 28.4z"/><path class="X" d="m495.7 386.1l24.7 35 101.7 10.5 15.2-9 7.3-1.5-29.9 18.1 5.5 10.3h-16.1l-71-21.5-20.2-5.6z"/><path class="Y" d="m504.9 379.6l22.1 1.6 110.3 41.4-15.2 9-101.7-10.5-24.7-35z"/><path class="Z" d="m622.1 431.6l-0.1 3.2-7.3 4.4 5.5 10.3h-16.1l-86-25.7 2.3-2.7z"/><path class="a0" d="m757.5 449.5l-1.3-6.6 3.1-5.3-12.1-6-18.7-16v-7.6l133.2-57.6 11 3.3 10.1 67.4-26.2 14.1-4.4 6.2-1.1 8.1z"/><path class="a1" d="m882.8 421.1l-26.2 14.1-4.4 6.2-1.1 8.1h-93.6l-1.3-6.6 65.5-5.3-24.1-4.1-38.3 4.1-12.1-6-18.7-16 45.1 12.8 79.4 2.8 16.3-10.1-18.7-6.5h-26.7l-45.3 6.5 72-21.1 20.6-19.9 1.5-26.4z"/><path class="Y" d="m728.5 408l133.2-57.6 11 3.3-1.5 26.4-20.6 19.9-69.5 20.8-16.3 5.1-36.3-10.3z"/><path class="a2" d="m797.6 433.5l0.4-4.3 55 2 16.3-10.1 2.8 5.7-15.5 8.4-4.4 6.2-1.1 8.1h-31.7l2.3-11.9z"/><path class="a3" d="m284.7 449.5l3.8-9.2-3.5-8.7-3.5-10.4 133.3-25.5 4.8 9.7-15.2 31-4 4.7-28.2 3.2 0.1 5.2z"/><path class="a4" d="m404.4 436.4l-4 4.7-28.2 3.2 0.1 5.2h-58.6l22.5-9.2 24.8-5.4-56.5 2.1-16 3.3-7-19.1 20.3 10.4h91l26.8-26.2z"/><path class="Y" d="m414.8 395.7l4.8 9.7-26.8 26.2h-91l-20.3-10.4z"/><path class="a5" d="m419.6 405.4l-15.2 31-4 4.7-28.2 3.2 0.1 5.2h-31.1l-5-9.2 24.8-5.4-13.4 0.5 9.1-3.8h36.1z"/><ellipse class="a6" cx="485.4" cy="430.5" rx="460.1" ry="145.8"/></g><path class="a7" d="m184.5 387.5h-139.7c-12.9 0-23.4-10.5-23.4-23.4v-286.1c0-12.9 10.5-23.4 23.4-23.4h139.7l43.9-32.8h530.4l43.9 32.8h139.7c12.9 0 23.4 10.5 23.4 23.4v286.1c0 12.9-10.5 23.4-23.4 23.4h-139.7l-43.9 32.8h-530.4z"/></svg>